<?xml version="1.0" encoding="iso-8859-1"?>
<!-- Uploaded to: SVG Repo, www.svgrepo.com, Generator: SVG Repo Mixer Tools -->
<!DOCTYPE svg PUBLIC "-//W3C//DTD SVG 1.1//EN" "http://www.w3.org/Graphics/SVG/1.1/DTD/svg11.dtd">
<svg fill="#000000" version="1.1" id="Capa_1" xmlns="http://www.w3.org/2000/svg" xmlns:xlink="http://www.w3.org/1999/xlink" 
	 viewBox="0 0 481.289 481.289" xml:space="preserve">
<g id="XMLID_197_">
	<rect id="XMLID_198_" x="166.406" y="408.477" width="148.484" height="27.837"/>
	<path id="XMLID_199_" d="M240.652,459.104c-12.235,0-22.177,9.958-22.185,22.185h44.363
		C262.822,469.063,252.879,459.104,240.652,459.104z"/>
	<path id="XMLID_200_" d="M166.406,467.789c0,7.459,6.042,13.5,13.501,13.5h22.258c0-10.977,4.672-20.823,12.067-27.845h-47.826
		V467.789z"/>
	<path id="XMLID_201_" d="M279.133,481.289h22.256c7.458,0,13.5-6.041,13.5-13.5v-14.345h-47.826
		C274.459,460.466,279.133,470.313,279.133,481.289z"/>
	<path id="XMLID_202_" d="M164.981,378.497h151.325l30.433-336.203h-212.19L164.981,378.497z M190.423,210.759
		c18.197-41.32,54.636-72.775,70.588-85.163c2.817-2.188,6.904-0.045,6.698,3.516c-0.724,12.529,0.395,36.307,14.528,62.264
		c13.158,24.224,38.465,68.969-46.464,127.627c-9.351-36.375-10.552-79.398,8.654-130.57c0.298-0.796-0.829-1.331-1.247-0.592
		c-23.569,41.653-32.534,100.318-23.574,125.273C203.048,293.849,172.751,250.919,190.423,210.759z"/>
	<path id="XMLID_205_" d="M345.76,4.396C343.198,1.593,339.583,0,335.794,0h-190.3c-3.789,0-7.403,1.593-9.966,4.396
		c-2.556,2.802-3.821,6.542-3.479,10.324l0.947,10.443h215.296l0.947-10.443C349.582,10.938,348.315,7.197,345.76,4.396z"/>
</g>
</svg>