<?xml version="1.0" encoding="UTF-8"?>
<svg version="1.1" xmlns="http://www.w3.org/2000/svg" width="512" height="512">
<path d="M0 0 C0.74420424 -0.00235223 1.48840847 -0.00470446 2.25516436 -0.00712797 C4.7627879 -0.01381441 7.27035958 -0.01335985 9.77799129 -0.01294994 C11.58851686 -0.01624879 13.39904169 -0.0199744 15.20956558 -0.02409142 C20.19598502 -0.03411721 25.18239241 -0.03782915 30.1688205 -0.04048073 C35.54256746 -0.04438208 40.91630487 -0.05396055 46.29004574 -0.0626936 C59.27334118 -0.08246299 72.2566374 -0.0925249 85.23994413 -0.10142139 C91.35268337 -0.10580358 97.46542174 -0.11117057 103.57816029 -0.11641026 C123.8961424 -0.13342314 144.21412398 -0.14791752 164.53211212 -0.155159 C169.80563578 -0.15706892 175.07915943 -0.15898925 180.35268307 -0.16094494 C181.66340615 -0.16142868 182.97412922 -0.16191242 184.32457118 -0.16241082 C205.55945204 -0.17071187 226.79427659 -0.19604981 248.02913285 -0.22852562 C269.82612293 -0.26158958 291.62308438 -0.27960717 313.42009968 -0.28280324 C325.66007411 -0.28496896 337.89996642 -0.29372682 350.13991642 -0.31926441 C360.56368424 -0.34096233 370.98734999 -0.34902627 381.41113783 -0.33929763 C386.7289329 -0.33475032 392.04651733 -0.33666445 397.36428356 -0.35605907 C402.23574975 -0.37367242 407.10685134 -0.37270771 411.97832131 -0.35716178 C413.73747504 -0.35478295 415.49665389 -0.35912354 417.2557692 -0.37099043 C433.26487042 -0.47226809 445.24320635 2.9674455 457.5457983 13.78656483 C464.07646288 20.76056434 468.77830436 30.53599477 468.80390644 40.11913681 C468.80898098 41.12926864 468.81405553 42.13940046 468.81928384 43.18014234 C468.82003048 44.84192647 468.82003048 44.84192647 468.8207922 46.53728199 C468.82517445 47.71575752 468.82955671 48.89423305 468.83407176 50.10841995 C468.84512912 53.38074516 468.85168197 56.65304339 468.85625291 59.92538297 C468.86221532 63.45457477 468.87382373 66.98374902 468.88454342 70.51292896 C468.90905547 79.03790305 468.92369419 87.56288294 468.93660349 96.08788142 C468.94031673 98.49699788 468.94428987 100.90611376 468.94835615 103.31522965 C468.97359745 118.28451478 468.99564451 133.25380086 469.0080843 148.22310257 C469.01101387 151.68981333 469.01397555 155.15652406 469.01698971 158.62323475 C469.01773576 159.48484099 469.01848181 160.34644723 469.01925047 161.23416276 C469.0318939 175.17995269 469.06510376 189.12561484 469.10679154 203.07134508 C469.1492686 217.39896256 469.17278611 231.72651473 469.17800486 246.05419499 C469.18141278 254.09460848 469.19309435 262.13482239 469.2261076 270.17517376 C469.25418894 277.02551012 469.26507226 283.87560598 469.25391214 290.72599541 C469.2487457 294.2173604 469.25147902 297.70822241 469.27637768 301.19951344 C469.29913492 304.99619296 469.29074155 308.79161994 469.27489376 312.58830738 C469.28877585 313.67608697 469.30265794 314.76386656 469.31696069 315.88460916 C469.19660865 327.65123378 465.0889346 338.76143024 456.66689205 347.13422108 C447.80477152 354.61778953 437.15580733 360.29140447 425.45962524 360.27123547 C424.71687445 360.27388729 423.97412365 360.27653912 423.20886526 360.2792713 C420.7001564 360.28697931 418.19149637 360.28752405 415.68277645 360.28812122 C413.87382647 360.29213488 412.0648774 360.29657294 410.25592941 360.30140078 C405.269183 360.31338331 400.28244627 360.31901864 395.29568827 360.32358193 C389.92326669 360.32953179 384.55085672 360.34114329 379.17844296 360.35187244 C366.19472712 360.37641242 353.21100742 360.39102688 340.22727552 360.40393251 C336.56061435 360.40764358 332.89395356 360.41161689 329.22729278 360.41568518 C306.4634042 360.44092318 283.69951503 360.46297885 260.93561554 360.47541332 C255.66090105 360.47834308 250.38618657 360.48130474 245.11147213 360.48431873 C243.80044586 360.48506478 242.48941959 360.48581083 241.13866525 360.48657949 C219.90438238 360.49923104 198.67018328 360.53245025 177.43593956 360.57412057 C155.64010689 360.61654257 133.8443171 360.64010876 112.04844326 360.64533389 C99.80895935 360.64874792 87.56960629 360.66050222 75.330163 360.69343662 C64.90528796 360.72144202 54.48057059 360.73243429 44.05566085 360.72124116 C38.7377026 360.71605563 33.42007452 360.71893474 28.10216427 360.7437067 C23.22930684 360.76621569 18.35701645 360.76544628 13.48414897 360.74650283 C11.72561714 360.74370514 9.96704672 360.74928846 8.20857687 360.76431577 C-2.06762954 360.84673069 -10.04935982 360.099344 -19.33310795 355.13422108 C-20.96506107 354.30857655 -20.96506107 354.30857655 -22.62998295 353.46625233 C-33.81932929 346.53527187 -39.6223401 337.67663821 -43.33310795 325.13422108 C-43.9562141 320.95048847 -44.01158948 316.87349753 -43.96802616 312.64886951 C-43.97582611 311.46270416 -43.98362607 310.27653881 -43.99166238 309.05442905 C-44.00801234 305.80211595 -44.00232439 302.55075596 -43.98673129 299.29846859 C-43.97532915 295.7755315 -43.99292397 292.25271463 -44.0066309 288.72980213 C-44.02877421 281.84431359 -44.02410216 274.95909874 -44.00956769 268.07359982 C-43.99824015 262.47378909 -43.99675968 256.87405464 -44.00218678 251.27423573 C-44.00295294 250.47489573 -44.00371911 249.67555574 -44.00450849 248.85199332 C-44.00610724 247.22775775 -44.00772831 245.6035222 -44.00937144 243.97928667 C-44.02360285 228.77638149 -44.00727731 213.57362747 -43.98036961 198.37074709 C-43.95803318 185.34781903 -43.96191404 172.32511387 -43.98496342 159.30218983 C-44.01176767 144.15082733 -44.02222979 128.99959705 -44.0069021 113.84821415 C-44.00530948 112.2302116 -44.00373763 110.61220902 -44.00218678 108.99420643 C-44.0014154 108.19827855 -44.00064402 107.40235067 -43.99984927 106.58230376 C-43.99554611 100.99423036 -44.00278881 95.40624136 -44.01458454 89.81818104 C-44.02865963 83.00095662 -44.02470512 76.18401976 -43.99818082 69.36682796 C-43.98510936 65.89365931 -43.97977449 62.42096874 -43.99642658 58.94780445 C-44.01016786 55.1712561 -43.99285933 51.39603717 -43.96802616 47.61957264 C-43.97917977 46.53793213 -43.99033338 45.45629162 -44.00182498 44.34187412 C-43.8529688 32.60517136 -39.74467083 21.48032432 -31.33310795 13.13422108 C-22.0313174 5.39838853 -12.17514343 -0.02609329 0 0 Z " fill="#C4C8F7" transform="translate(43.33310794830322,75.86577892303467)"/>
<path d="M0 0 C0.74420424 -0.00235223 1.48840847 -0.00470446 2.25516436 -0.00712797 C4.7627879 -0.01381441 7.27035958 -0.01335985 9.77799129 -0.01294994 C11.58851686 -0.01624879 13.39904169 -0.0199744 15.20956558 -0.02409142 C20.19598502 -0.03411721 25.18239241 -0.03782915 30.1688205 -0.04048073 C35.54256746 -0.04438208 40.91630487 -0.05396055 46.29004574 -0.0626936 C59.27334118 -0.08246299 72.2566374 -0.0925249 85.23994413 -0.10142139 C91.35268337 -0.10580358 97.46542174 -0.11117057 103.57816029 -0.11641026 C123.8961424 -0.13342314 144.21412398 -0.14791752 164.53211212 -0.155159 C169.80563578 -0.15706892 175.07915943 -0.15898925 180.35268307 -0.16094494 C181.66340615 -0.16142868 182.97412922 -0.16191242 184.32457118 -0.16241082 C205.55945204 -0.17071187 226.79427659 -0.19604981 248.02913285 -0.22852562 C269.82612293 -0.26158958 291.62308438 -0.27960717 313.42009968 -0.28280324 C325.66007411 -0.28496896 337.89996642 -0.29372682 350.13991642 -0.31926441 C360.56368424 -0.34096233 370.98734999 -0.34902627 381.41113783 -0.33929763 C386.7289329 -0.33475032 392.04651733 -0.33666445 397.36428356 -0.35605907 C402.23574975 -0.37367242 407.10685134 -0.37270771 411.97832131 -0.35716178 C413.73747504 -0.35478295 415.49665389 -0.35912354 417.2557692 -0.37099043 C433.1202332 -0.47135308 445.72223307 2.79642121 457.65126705 13.99750233 C460.72920643 17.43351881 462.62052208 20.99383411 464.66689205 25.13422108 C444.1681304 45.65581648 423.6667956 66.17483812 403.1618869 86.69029156 C400.73873153 89.11469757 398.315598 91.53912543 395.89247799 93.96356678 C395.41009688 94.4462102 394.92771577 94.92885362 394.43071705 95.4261226 C386.62962521 103.23156064 378.83030301 111.03876461 371.03163832 118.8466276 C363.02393208 126.86369958 355.01427856 134.87882156 347.00293875 142.89226288 C342.5054923 147.3910118 338.00892712 151.8906336 333.51447201 156.39237118 C329.28141418 160.63223211 325.04599823 164.86972312 320.80878735 169.10543346 C319.256763 170.65773221 317.70559106 172.21088376 316.15535259 173.76496601 C314.03224676 175.89307614 311.90604273 178.01804397 309.77907467 180.14229298 C309.17204378 180.75223671 308.56501288 181.36218044 307.93958712 181.99060732 C304.23979035 185.67770849 300.41511664 189.16684433 296.45311761 192.57097572 C293.83819731 194.85946722 291.42644989 197.29396155 288.99208736 199.77484608 C288.48350185 200.29131702 287.97491634 200.80778797 287.45091915 201.33990955 C286.36196364 202.44587453 285.27409744 203.55291299 284.18725491 204.66095448 C281.85818206 207.03273303 279.51921864 209.39466018 277.18091106 211.75732899 C272.8470173 216.13659725 268.51709799 220.51961534 264.20400143 224.91937733 C261.18433182 227.99895241 258.1521485 231.06572659 255.11173916 234.12482166 C253.96706617 235.28111231 252.8269012 236.44188641 251.69171047 237.60748768 C240.81619918 248.76694151 230.01376584 257.20742115 213.765769 257.51459217 C195.4794528 257.47386129 185.97447326 250.74890237 173.30811214 238.05632496 C172.39810611 237.15226117 171.48810007 236.24819738 170.5505181 235.31673771 C168.04243338 232.82466854 165.54053698 230.32646867 163.0397073 227.82712185 C160.33510308 225.12624005 157.62482261 222.43106367 154.91536617 219.73505116 C149.00354231 213.85029511 143.09919438 207.95807682 137.19647956 202.06418586 C133.51095597 198.38419766 129.82396468 194.70568237 126.13671207 191.02742672 C115.92544218 180.84051742 105.71604907 170.65173548 95.51356316 160.45602798 C94.53584413 159.47896766 94.53584413 159.47896766 93.53837321 158.48216874 C92.55837196 157.50282233 92.55837196 157.50282233 91.55857271 156.50369114 C90.23473759 155.18074294 88.91089937 153.85779785 87.58705807 152.53485584 C86.9303939 151.87863454 86.27372974 151.22241324 85.59716666 150.54630644 C74.93490669 139.89195809 64.25918726 129.25120526 53.57766002 118.61617684 C42.60844237 107.69432628 31.65045176 96.76131714 20.70372397 85.81692463 C14.55811317 79.67314948 8.40772898 73.53432565 2.24493885 67.40777874 C-2.9967589 62.19680051 -8.2281662 56.97576487 -13.44623876 51.74112492 C-16.10997936 49.06954494 -18.77841116 46.40312617 -21.46001339 43.74946499 C-24.36208413 40.87735923 -27.24056808 37.98273635 -30.11718082 35.08513355 C-31.40321401 33.82326958 -31.40321401 33.82326958 -32.71522766 32.53591341 C-33.47813345 31.75982794 -34.24103923 30.98374246 -35.02706337 30.18413925 C-35.69445205 29.51794475 -36.36184074 28.85175024 -37.04945332 28.16536802 C-38.33310795 26.13422108 -38.33310795 26.13422108 -38.10589784 23.50561291 C-34.81014684 13.39223401 -24.88173873 7.85265344 -15.95810795 3.25922108 C-10.52374772 0.58629471 -6.03487743 -0.01293371 0 0 Z " fill="#1689FB" transform="translate(43.33310794830322,75.86577892303467)"/>
<path d="M0 0 C4.63395068 4.62794007 9.25298933 9.27067407 13.87257385 13.91294861 C15.73178966 15.78096659 17.59102362 17.64896649 19.45028687 19.51693726 C19.94131288 20.01026863 20.4323389 20.5036 20.9382445 21.01188081 C43.57323902 43.75287958 66.22371461 66.47839512 88.88590256 89.19229453 C92.16143617 92.47533092 95.43683794 95.75849881 98.7121582 99.04174805 C99.69009823 100.02204887 99.69009823 100.02204887 100.68779462 101.02215374 C111.2476013 111.6080776 121.79675661 122.20455511 132.34203375 132.80495053 C143.1792177 143.6983024 154.0278206 154.58018414 164.8870396 165.45157057 C171.57872937 172.15147598 178.26143367 178.86008918 184.93276685 185.58026565 C189.50918503 190.18847239 194.09667766 194.78546176 198.69290353 199.37391179 C201.34106198 202.01823951 203.98419366 204.66710969 206.61423492 207.32946777 C209.47277631 210.2228742 212.35435749 213.09222068 215.23854065 215.96006775 C216.05618458 216.79518873 216.87382851 217.6303097 217.71624953 218.49073738 C227.83994847 228.4607938 236.49477968 230.92782567 251 233 C251 266.99 251 300.98 251 336 C196.56403512 336.20151517 196.56403512 336.20151517 173.73828125 336.24414062 C157.9828273 336.2737992 142.22750714 336.30865004 126.47216797 336.37719727 C114.99720398 336.42709786 103.5223486 336.45930667 92.04727912 336.47044247 C85.97360519 336.47694986 79.90024195 336.49219974 73.82666779 336.52865028 C68.10406614 336.56271458 62.38190171 336.57303174 56.6592083 336.56553841 C54.56467496 336.56690828 52.47012625 336.57677804 50.37568092 336.59602737 C39.15369139 336.6940622 29.99889017 336.64039211 20 331 C18.36804687 330.17435547 18.36804687 330.17435547 16.703125 329.33203125 C5.51489356 322.4017414 -0.29160087 313.54239395 -4 301 C-4.62173759 296.81152235 -4.67440698 292.73026611 -4.62818909 288.50119019 C-4.63528347 287.3136137 -4.64237786 286.12603722 -4.64968723 284.90247357 C-4.66411766 281.64628855 -4.6564886 278.39106978 -4.6389643 275.13492942 C-4.62548794 271.6079507 -4.64106368 268.0810762 -4.65278625 264.55410767 C-4.67109022 257.66125887 -4.66269984 250.76869501 -4.64469803 243.87585531 C-4.63062992 238.27126241 -4.62678824 232.66674647 -4.6301403 227.0621376 C-4.63061775 226.26222016 -4.63109519 225.46230273 -4.6315871 224.63814536 C-4.6326135 223.01277833 -4.63366886 221.38741132 -4.63475286 219.76204433 C-4.64330498 205.41536211 -4.62669222 191.06881685 -4.59692383 176.72216797 C-4.56807923 162.82041678 -4.56100993 148.91886276 -4.57641602 135.01708984 C-4.59319783 119.8533016 -4.59719305 104.68960679 -4.57970566 89.52581608 C-4.57786139 87.90728769 -4.57602666 86.28875928 -4.57420158 84.67023087 C-4.57328949 83.87402156 -4.5723774 83.07781226 -4.57143768 82.2574754 C-4.56584541 76.66246744 -4.5691271 71.0675053 -4.57574654 65.47249985 C-4.5834982 58.65012376 -4.57666111 51.82794134 -4.5515715 45.00560413 C-4.53911997 41.52869698 -4.53287663 38.05209069 -4.54411316 34.57517242 C-4.55283011 30.79808163 -4.53681173 27.02186079 -4.5146637 23.24484253 C-4.52290446 22.15737634 -4.53114523 21.06991014 -4.53963572 19.94949043 C-4.46052039 12.61586861 -2.91526547 6.72172172 0 0 Z " fill="#E0E3FA" transform="translate(4,100)"/>
<path d="M0 0 C1.34332649 -0.00128403 1.34332649 -0.00128403 2.71379089 -0.00259399 C5.73005144 -0.00425179 8.74625671 0.00127871 11.76251221 0.00672913 C13.95569482 0.00703539 16.14887752 0.0069021 18.34206009 0.00636387 C24.22386751 0.00613779 30.10565465 0.01194045 35.98745728 0.0189743 C41.50345932 0.02466241 47.01945639 0.02493705 52.53546143 0.02565002 C68.67527532 0.03090073 84.81508542 0.04486184 100.95489502 0.05775452 C155.03364502 0.08869202 155.03364502 0.08869202 210.20489502 0.12025452 C210.20489502 84.93025452 210.20489502 169.74025452 210.20489502 257.12025452 C198.84717144 257.12025452 198.84717144 257.12025452 194.57989502 255.49525452 C193.32305908 255.04279358 193.32305908 255.04279358 192.04083252 254.58119202 C184.17223176 250.52767042 178.03985556 244.24891839 171.84611511 238.0423584 C170.93610908 237.13829461 170.02610304 236.23423082 169.08852106 235.30277115 C166.58043635 232.81070198 164.07853994 230.31250211 161.57771027 227.81315529 C158.87310605 225.11227349 156.16282558 222.41709711 153.45336914 219.72108459 C147.54154528 213.83632855 141.63719735 207.94411026 135.73448253 202.0502193 C132.04895894 198.3702311 128.36196765 194.69171581 124.67471504 191.01346016 C114.46344515 180.82655086 104.25405204 170.63776892 94.05156612 160.44206142 C93.0738471 159.4650011 93.0738471 159.4650011 92.07637617 158.46820218 C91.09637493 157.48885576 91.09637493 157.48885576 90.09657568 156.48972458 C88.77274056 155.16677638 87.44890234 153.84383129 86.12506104 152.52088928 C85.46839687 151.86466798 84.81173271 151.20844668 84.13516963 150.53233988 C73.47290966 139.87799153 62.79719023 129.2372387 52.11566298 118.60221028 C41.14644533 107.68035972 30.18845473 96.74735058 19.24172693 85.80295807 C13.09611614 79.65918292 6.94573194 73.52035909 0.78294182 67.39381218 C-4.45875593 62.18283395 -9.69016323 56.96179831 -14.9082358 51.72715836 C-17.57197639 49.05557838 -20.24040819 46.38915961 -22.92201042 43.73549843 C-25.82408117 40.86339267 -28.70256511 37.96876979 -31.57917786 35.07116699 C-32.86521104 33.80930302 -32.86521104 33.80930302 -34.1772247 32.52194685 C-34.94013048 31.74586138 -35.70303626 30.9697759 -36.4890604 30.17017269 C-37.15644908 29.50397819 -37.82383777 28.83778368 -38.51145035 28.15140146 C-39.79510498 26.12025452 -39.79510498 26.12025452 -39.56789488 23.49164635 C-36.27214387 13.37826745 -26.34373576 7.83868688 -17.42010498 3.24525452 C-11.52301442 0.34473115 -6.53774753 -0.02266327 0 0 Z " fill="#18A7FB" transform="translate(44.79510498046875,75.87974548339844)"/>
<path d="M0 0 C52 52 104 104 156 156 C104.33333333 207.66666667 52.66666667 259.33333333 1 311 C-1.56847131 309.71576435 -1.66146008 308.85751493 -2.60077 306.18861198 C-4.39431333 300.45089088 -4.42045752 294.95222176 -4.38768005 288.98220825 C-4.39306559 287.79804947 -4.39845113 286.61389068 -4.40399987 285.3938483 C-4.4157809 282.12885368 -4.41423193 278.86418909 -4.40683305 275.5991919 C-4.40208622 272.06943062 -4.4146246 268.53972308 -4.42485046 265.00997925 C-4.44201445 258.10328649 -4.44288344 251.1966848 -4.43763756 244.28997625 C-4.43359 238.67385699 -4.43504637 233.05776456 -4.44038582 227.44164658 C-4.44113424 226.64118718 -4.44188266 225.84072778 -4.44265376 225.01601204 C-4.4441853 223.38967888 -4.44572365 221.76334573 -4.44726873 220.13701259 C-4.46098519 204.89798294 -4.45556219 189.65900468 -4.44408352 174.41997622 C-4.43415292 160.49256397 -4.44709031 146.56528461 -4.47101771 132.63789286 C-4.49542738 118.32141389 -4.50501194 104.00499677 -4.49836498 89.68849742 C-4.4948768 81.6572126 -4.49707828 73.62602994 -4.51461601 65.59476089 C-4.52936142 58.75766709 -4.52994305 51.92074739 -4.5125451 45.08365692 C-4.50405168 41.59866404 -4.50184439 38.11398185 -4.51719666 34.62900543 C-4.53041064 30.84296502 -4.51885358 27.0577637 -4.50120544 23.27175903 C-4.51081045 22.18156436 -4.52041546 21.09136969 -4.53031152 19.96813881 C-4.4601034 12.62464688 -2.92177833 6.72979601 0 0 Z " fill="#C4C8F7" transform="translate(4,100)"/>
<path d="M0 0 C2.568371 1.2841855 2.66142571 2.14219342 3.60077 4.81096745 C5.39498247 10.55085099 5.42044931 16.0522824 5.38768005 22.02452087 C5.39575836 23.8018174 5.39575836 23.8018174 5.40399987 25.6150189 C5.41578091 28.88194407 5.41423194 32.1485394 5.40683305 35.41546714 C5.40208627 38.9472543 5.41462449 42.47898773 5.42485046 46.01075745 C5.44201402 52.9211252 5.44288361 59.83140193 5.43763756 66.74178546 C5.43359025 72.36029699 5.43504607 77.97878169 5.44038582 83.59729195 C5.44113424 84.39804007 5.44188266 85.19878819 5.44265376 86.0238014 C5.4441853 87.65070029 5.44572364 89.27759917 5.44726873 90.90449805 C5.4609848 106.14826632 5.45556225 121.39198321 5.44408352 136.6357503 C5.43415093 150.5703046 5.44709382 164.50472612 5.47101771 178.43925994 C5.49542105 192.76138413 5.50501362 207.08344651 5.49836498 221.40559107 C5.49487565 229.44075639 5.49708597 237.4758196 5.51461601 245.51096916 C5.52935341 252.35065339 5.52995337 259.19016359 5.5125451 266.02984446 C5.50404549 269.51673867 5.50185969 273.00332221 5.51719666 276.49020004 C5.53039447 280.27659092 5.51886792 284.06214061 5.50120544 287.84849548 C5.51561295 289.48815675 5.51561295 289.48815675 5.53031152 291.16094249 C5.46275184 298.21371201 4.08976631 303.65635457 1 310 C-3.69592274 306.07653379 -8.14574117 301.99713924 -12.46043396 297.65982056 C-13.07078068 297.05032826 -13.68112741 296.44083596 -14.30996948 295.8128742 C-16.33589638 293.78858245 -18.35824993 291.76075962 -20.38061523 289.73291016 C-21.83954237 288.2737007 -23.29869023 286.81471191 -24.75804138 285.35592651 C-28.70602391 281.4082302 -32.65092152 277.45746426 -36.59526324 273.5061307 C-40.72277112 269.37236002 -44.85312215 265.24143213 -48.98316956 261.11019897 C-56.79770641 253.29255743 -64.60969121 245.47237086 -72.42075735 237.65126169 C-81.31599078 228.74484035 -90.21407311 219.84126759 -99.11239326 210.93793035 C-117.41142895 192.62844979 -135.70689259 174.3154034 -154 156 C-152.34828196 151.74238754 -149.16802712 148.89589215 -145.98898315 145.74847412 C-145.36657435 145.12435646 -144.74416554 144.5002388 -144.10289586 143.85720849 C-142.01326453 141.76427936 -139.91655845 139.67858492 -137.81982422 137.59277344 C-136.3215818 136.09509507 -134.82377946 134.59697636 -133.3263855 133.09844971 C-129.25672032 129.02820978 -125.18091 124.96417371 -121.10399008 120.9012022 C-116.84563664 116.65533563 -112.5929313 112.40381967 -108.33963013 108.15289307 C-100.28302218 100.10250589 -92.2213287 92.05723134 -84.15780747 84.01376939 C-74.97866661 74.85696891 -65.80519162 65.69450129 -56.63219428 56.53154707 C-37.76110544 37.68137377 -18.88289259 18.83834853 0 0 Z " fill="#A7AFF1" transform="translate(507,101)"/>
<path d="M0 0 C0.66 0.33 1.32 0.66 2 1 C-1.63 4.63 -5.26 8.26 -9 12 C-9 8.47601214 -8.44884893 7.98495633 -6.1875 5.4375 C-5.40439453 4.53837891 -5.40439453 4.53837891 -4.60546875 3.62109375 C-3 2 -3 2 0 0 Z " fill="#3FAEFB" transform="translate(17,85)"/>
</svg>
