<svg version="1.1" id="Layer_1" xmlns="http://www.w3.org/2000/svg" xmlns:xlink="http://www.w3.org/1999/xlink" x="0px" y="0px"
	 width="100%" viewBox="0 0 512 512" enable-background="new 0 0 512 512" xml:space="preserve">
<path fill="#000000" opacity="1.000000" stroke="none" 
	d="
M1.000000,188.000000 
	C1.000000,125.333336 1.000000,63.166668 1.000000,1.000000 
	C171.666672,1.000000 342.333344,1.000000 513.000000,1.000000 
	C513.000000,171.666672 513.000000,342.333344 513.000000,513.000000 
	C342.333344,513.000000 171.666672,513.000000 1.000000,513.000000 
	C1.000000,404.833344 1.000000,296.666656 1.000000,188.000000 
M465.052734,201.607544 
	C465.192841,201.262360 465.332977,200.917160 465.334595,199.854340 
	C460.588867,189.032196 455.699615,178.269348 451.188049,167.350449 
	C449.896942,164.225647 449.103851,160.651077 449.091614,157.279099 
	C448.949524,117.969231 449.000580,78.658661 449.000519,39.348274 
	C449.000519,37.408707 449.000549,35.469135 449.000549,33.431229 
	C379.332794,33.431229 310.338928,33.431229 241.390289,33.431229 
	C241.390289,38.774639 241.390289,43.677601 241.390289,49.000866 
	C253.742142,49.000866 265.707672,48.993870 277.673218,49.003170 
	C286.585907,49.010098 288.994110,51.377068 288.995972,60.174767 
	C289.003723,96.986610 288.999390,133.798447 288.999481,170.610291 
	C288.999481,172.553864 288.999451,174.497437 288.999451,177.000671 
	C291.589386,177.000671 293.542419,177.000671 295.495453,177.000671 
	C339.969482,177.000702 384.443695,177.053375 428.917358,176.924545 
	C433.703247,176.910690 437.496368,178.077621 441.126099,181.311066 
	C448.820465,188.165421 456.869019,194.622147 465.052734,201.607544 
M49.908855,233.044693 
	C57.766693,226.343063 65.729591,219.759125 73.432152,212.883530 
	C76.643074,210.017319 80.016808,208.929062 84.279129,208.935699 
	C145.270859,209.030792 206.262787,209.000641 267.254669,209.000626 
	C269.036896,209.000626 270.819153,209.000610 272.720642,209.000610 
	C272.720642,160.784546 272.720642,113.062286 272.720642,65.309578 
	C203.386612,65.309578 134.332947,65.309578 64.999374,65.309578 
	C64.999374,67.427055 64.999367,69.236534 64.999367,71.046021 
	C64.999374,110.207474 65.074776,149.369293 64.884972,188.529831 
	C64.865585,192.530075 63.800491,196.744598 62.280437,200.476746 
	C57.891983,211.251541 53.022827,221.830551 48.040958,233.015198 
	C48.107845,233.303604 48.174732,233.592010 48.241619,233.880417 
	C48.585869,233.677658 48.930119,233.474915 49.908855,233.044693 
M230.500000,225.000061 
	C194.083420,225.000061 157.666840,225.000061 121.300285,225.000061 
	C121.300285,305.318390 121.300285,385.029755 121.300285,464.696777 
	C185.316406,464.696777 249.031830,464.696777 312.699860,464.696777 
	C312.699860,384.681854 312.699860,304.970490 312.699860,225.000061 
	C285.433716,225.000061 258.466858,225.000061 230.500000,225.000061 
M330.286804,464.855530 
	C335.505035,476.695648 346.047943,482.862488 357.252136,480.628174 
	C369.545868,478.176636 376.986298,468.527863 376.994781,454.938049 
	C377.011688,427.941376 376.999878,400.944702 376.999939,373.948029 
	C376.999939,372.359253 376.999939,370.770447 376.999939,369.359894 
	C360.596039,369.359894 344.864227,369.359894 329.028717,369.359894 
	C329.028717,399.208496 329.009094,428.697449 329.072937,458.186279 
	C329.077209,460.149414 329.715485,462.111206 330.286804,464.855530 
z"/>
<path fill="#C5C3C6" opacity="1.000000" stroke="none" 
	d="
M231.000000,225.000061 
	C258.466858,225.000061 285.433716,225.000061 312.699860,225.000061 
	C312.699860,304.970490 312.699860,384.681854 312.699860,464.696777 
	C249.031830,464.696777 185.316406,464.696777 121.300285,464.696777 
	C121.300285,385.029755 121.300285,305.318390 121.300285,225.000061 
	C157.666840,225.000061 194.083420,225.000061 231.000000,225.000061 
M181.500000,320.999969 
	C166.748062,320.999969 151.996140,320.999969 137.324951,320.999969 
	C137.324951,326.673035 137.324951,331.735870 137.324951,336.697449 
	C190.683228,336.697449 243.715988,336.697449 296.675201,336.697449 
	C296.675201,331.327271 296.675201,326.264435 296.675201,320.999969 
	C258.400513,320.999969 220.450256,320.999969 181.500000,320.999969 
M271.500000,385.000031 
	C279.924652,385.000031 288.349274,385.000031 296.669189,385.000031 
	C296.669189,379.314728 296.669189,374.251312 296.669189,369.308350 
	C243.305054,369.308350 190.272247,369.308350 137.330627,369.308350 
	C137.330627,374.684906 137.330627,379.748260 137.330627,385.000031 
	C181.940674,385.000031 226.220337,385.000031 271.500000,385.000031 
M245.500000,416.999969 
	C209.429550,416.999969 173.359100,416.999969 137.305359,416.999969 
	C137.305359,422.634888 137.305359,427.696198 137.305359,432.716919 
	C190.643204,432.716919 243.675644,432.716919 296.694794,432.716919 
	C296.694794,427.367004 296.694794,422.305054 296.694794,416.999969 
	C279.760529,416.999969 263.130249,416.999969 245.500000,416.999969 
M220.500000,289.000031 
	C245.904800,289.000031 271.309601,289.000031 296.695557,289.000031 
	C296.695557,283.364532 296.695557,278.304413 296.695557,273.283936 
	C259.356445,273.283936 222.322540,273.283936 185.304245,273.283936 
	C185.304245,278.633423 185.304245,283.694183 185.304245,289.000031 
	C196.904617,289.000031 208.202301,289.000031 220.500000,289.000031 
z"/>
<path fill="#FF9F1C" opacity="1.000000" stroke="none" 
	d="
M48.342430,232.486435 
	C53.022827,221.830551 57.891983,211.251541 62.280437,200.476746 
	C63.800491,196.744598 64.865585,192.530075 64.884972,188.529831 
	C65.074776,149.369293 64.999374,110.207474 64.999367,71.046021 
	C64.999367,69.236534 64.999374,67.427055 64.999374,65.309578 
	C134.332947,65.309578 203.386612,65.309578 272.720642,65.309578 
	C272.720642,113.062286 272.720642,160.784546 272.720642,209.000610 
	C270.819153,209.000610 269.036896,209.000626 267.254669,209.000626 
	C206.262787,209.000641 145.270859,209.030792 84.279129,208.935699 
	C80.016808,208.929062 76.643074,210.017319 73.432152,212.883530 
	C65.729591,219.759125 57.766693,226.343063 49.364548,232.954971 
	C48.660969,232.738983 48.501698,232.612701 48.342430,232.486435 
M147.895157,128.304199 
	C144.283340,137.000610 144.283340,137.000626 134.971558,137.000626 
	C127.712662,137.000626 120.453758,137.000610 113.383278,137.000610 
	C113.383278,142.756836 113.383278,147.822357 113.383278,153.262939 
	C121.647453,153.262939 129.530701,153.262939 137.786133,153.262939 
	C134.987259,160.449570 132.371948,167.164871 129.681137,174.074005 
	C134.887070,176.122681 139.497116,177.936859 144.429443,179.877853 
	C147.679062,171.792007 150.733490,163.913040 154.071411,156.156067 
	C154.639267,154.836411 156.395065,153.181168 157.649200,153.140671 
	C165.962799,152.872147 174.289261,153.001678 182.723862,153.001678 
	C186.383392,162.036880 189.969421,170.890594 193.642654,179.959671 
	C198.866806,177.839508 203.551102,175.938431 208.361023,173.986374 
	C205.517731,166.769257 202.914154,160.160599 200.049011,152.888000 
	C208.680496,152.888000 216.726517,152.888000 224.634766,152.888000 
	C224.634766,147.281326 224.634766,142.217209 224.634766,137.000610 
	C215.448196,137.000610 206.621338,136.844543 197.805176,137.083618 
	C194.636032,137.169556 193.140457,136.182190 192.001480,133.218582 
	C187.171219,120.650352 182.036057,108.199684 177.108292,95.668304 
	C175.574646,91.768219 173.275879,88.949333 168.778152,89.054214 
	C164.534180,89.153183 162.371552,91.902420 160.913834,95.612442 
	C156.718552,106.289864 152.392914,116.916077 147.895157,128.304199 
z"/>
<path fill="#4C5C68" opacity="1.000000" stroke="none" 
	d="
M464.772339,201.241928 
	C456.869019,194.622147 448.820465,188.165421 441.126099,181.311066 
	C437.496368,178.077621 433.703247,176.910690 428.917358,176.924545 
	C384.443695,177.053375 339.969482,177.000702 295.495453,177.000671 
	C293.542419,177.000671 291.589386,177.000671 288.999451,177.000671 
	C288.999451,174.497437 288.999481,172.553864 288.999481,170.610291 
	C288.999390,133.798447 289.003723,96.986610 288.995972,60.174767 
	C288.994110,51.377068 286.585907,49.010098 277.673218,49.003170 
	C265.707672,48.993870 253.742142,49.000866 241.390289,49.000866 
	C241.390289,43.677601 241.390289,38.774639 241.390289,33.431229 
	C310.338928,33.431229 379.332794,33.431229 449.000549,33.431229 
	C449.000549,35.469135 449.000519,37.408707 449.000519,39.348274 
	C449.000580,78.658661 448.949524,117.969231 449.091614,157.279099 
	C449.103851,160.651077 449.896942,164.225647 451.188049,167.350449 
	C455.699615,178.269348 460.588867,189.032196 465.225525,200.377350 
	C465.116425,200.900345 464.772339,201.241928 464.772339,201.241928 
M432.722961,73.944855 
	C430.825958,73.630157 428.933105,73.077553 427.031158,73.044098 
	C420.580566,72.930626 414.126770,73.000778 407.634155,73.000778 
	C408.136688,67.389557 408.584503,62.389332 409.032990,57.381577 
	C403.166779,57.381577 398.253967,57.381577 393.413940,57.381577 
	C392.811188,61.372337 392.184540,64.972023 391.744324,68.594368 
	C391.324799,72.046455 389.638275,73.121292 386.095398,73.088211 
	C366.449432,72.904839 346.800842,73.000595 327.153168,73.000763 
	C325.232880,73.000778 323.312592,73.000763 321.363098,73.000763 
	C321.363098,78.717201 321.363098,83.617828 321.363098,88.999237 
	C323.517700,88.999237 325.313812,88.999130 327.109894,88.999260 
	C334.602661,88.999802 342.097382,88.912834 349.586456,89.079292 
	C350.985229,89.110382 353.335236,89.881790 353.589966,90.780846 
	C355.244812,96.620964 356.441711,102.590813 357.986816,109.390594 
	C351.038208,110.878181 344.299927,112.320740 337.455078,113.786110 
	C337.455078,118.658813 337.455078,123.682358 337.455078,130.041946 
	C345.887817,128.158981 353.781647,126.948822 361.272614,124.504128 
	C365.375275,123.165222 367.252228,123.808769 369.865204,126.998131 
	C379.412598,138.651749 391.589203,146.600037 406.210999,150.360138 
	C412.168732,151.892197 418.380280,152.437225 424.629639,153.456314 
	C424.629639,147.199249 424.629639,142.288971 424.629639,137.230637 
	C406.481873,136.106476 391.676483,129.207260 381.142181,115.537407 
	C387.323242,107.897583 393.404083,101.079117 398.603333,93.644165 
	C400.995972,90.222610 403.100983,88.714912 407.293365,88.893105 
	C415.702545,89.250519 424.137604,88.999290 432.928802,88.999290 
	C432.928802,83.787163 432.928802,79.321709 432.722961,73.944855 
z"/>
<path fill="#C5C3C6" opacity="1.000000" stroke="none" 
	d="
M330.172852,464.464569 
	C329.715485,462.111206 329.077209,460.149414 329.072937,458.186279 
	C329.009094,428.697449 329.028717,399.208496 329.028717,369.359894 
	C344.864227,369.359894 360.596039,369.359894 376.999939,369.359894 
	C376.999939,370.770447 376.999939,372.359253 376.999939,373.948029 
	C376.999878,400.944702 377.011688,427.941376 376.994781,454.938049 
	C376.986298,468.527863 369.545868,478.176636 357.252136,480.628174 
	C346.047943,482.862488 335.505035,476.695648 330.172852,464.464569 
z"/>
<path fill="#4C5C68" opacity="1.000000" stroke="none" 
	d="
M465.294769,200.736160 
	C465.332977,200.917160 465.192841,201.262360 464.912537,201.424744 
	C464.772339,201.241928 465.116425,200.900345 465.294769,200.736160 
z"/>
<path fill="#FF9F1C" opacity="1.000000" stroke="none" 
	d="
M49.047306,233.068695 
	C48.930119,233.474915 48.585869,233.677658 48.241619,233.880417 
	C48.174732,233.592010 48.107845,233.303604 48.191689,232.750824 
	C48.501698,232.612701 48.660969,232.738983 49.047306,233.068695 
z"/>
<path fill="#000000" opacity="1.000000" stroke="none" 
	d="
M182.000000,320.999969 
	C220.450256,320.999969 258.400513,320.999969 296.675201,320.999969 
	C296.675201,326.264435 296.675201,331.327271 296.675201,336.697449 
	C243.715988,336.697449 190.683228,336.697449 137.324951,336.697449 
	C137.324951,331.735870 137.324951,326.673035 137.324951,320.999969 
	C151.996140,320.999969 166.748062,320.999969 182.000000,320.999969 
z"/>
<path fill="#000000" opacity="1.000000" stroke="none" 
	d="
M271.000000,385.000031 
	C226.220337,385.000031 181.940674,385.000031 137.330627,385.000031 
	C137.330627,379.748260 137.330627,374.684906 137.330627,369.308350 
	C190.272247,369.308350 243.305054,369.308350 296.669189,369.308350 
	C296.669189,374.251312 296.669189,379.314728 296.669189,385.000031 
	C288.349274,385.000031 279.924652,385.000031 271.000000,385.000031 
z"/>
<path fill="#000000" opacity="1.000000" stroke="none" 
	d="
M246.000000,416.999969 
	C263.130249,416.999969 279.760529,416.999969 296.694794,416.999969 
	C296.694794,422.305054 296.694794,427.367004 296.694794,432.716919 
	C243.675644,432.716919 190.643204,432.716919 137.305359,432.716919 
	C137.305359,427.696198 137.305359,422.634888 137.305359,416.999969 
	C173.359100,416.999969 209.429550,416.999969 246.000000,416.999969 
z"/>
<path fill="#000000" opacity="1.000000" stroke="none" 
	d="
M220.000000,289.000031 
	C208.202301,289.000031 196.904617,289.000031 185.304245,289.000031 
	C185.304245,283.694183 185.304245,278.633423 185.304245,273.283936 
	C222.322540,273.283936 259.356445,273.283936 296.695557,273.283936 
	C296.695557,278.304413 296.695557,283.364532 296.695557,289.000031 
	C271.309601,289.000031 245.904800,289.000031 220.000000,289.000031 
z"/>
<path fill="#000000" opacity="1.000000" stroke="none" 
	d="
M148.006821,127.933304 
	C152.392914,116.916077 156.718552,106.289864 160.913834,95.612442 
	C162.371552,91.902420 164.534180,89.153183 168.778152,89.054214 
	C173.275879,88.949333 175.574646,91.768219 177.108292,95.668304 
	C182.036057,108.199684 187.171219,120.650352 192.001480,133.218582 
	C193.140457,136.182190 194.636032,137.169556 197.805176,137.083618 
	C206.621338,136.844543 215.448196,137.000610 224.634766,137.000610 
	C224.634766,142.217209 224.634766,147.281326 224.634766,152.888000 
	C216.726517,152.888000 208.680496,152.888000 200.049011,152.888000 
	C202.914154,160.160599 205.517731,166.769257 208.361023,173.986374 
	C203.551102,175.938431 198.866806,177.839508 193.642654,179.959671 
	C189.969421,170.890594 186.383392,162.036880 182.723862,153.001678 
	C174.289261,153.001678 165.962799,152.872147 157.649200,153.140671 
	C156.395065,153.181168 154.639267,154.836411 154.071411,156.156067 
	C150.733490,163.913040 147.679062,171.792007 144.429443,179.877853 
	C139.497116,177.936859 134.887070,176.122681 129.681137,174.074005 
	C132.371948,167.164871 134.987259,160.449570 137.786133,153.262939 
	C129.530701,153.262939 121.647453,153.262939 113.383278,153.262939 
	C113.383278,147.822357 113.383278,142.756836 113.383278,137.000610 
	C120.453758,137.000610 127.712662,137.000626 134.971558,137.000626 
	C144.283340,137.000626 144.283340,137.000610 148.006821,127.933304 
M165.805328,137.000580 
	C169.147202,137.000580 172.489075,137.000580 176.406693,137.000580 
	C173.826828,130.656006 171.596313,125.170578 168.941544,118.641800 
	C166.253143,125.445168 164.058685,130.998596 161.745239,136.853088 
	C163.269821,136.923996 164.087921,136.962051 165.805328,137.000580 
z"/>
<path fill="#000000" opacity="1.000000" stroke="none" 
	d="
M432.825867,74.400558 
	C432.928802,79.321709 432.928802,83.787163 432.928802,88.999290 
	C424.137604,88.999290 415.702545,89.250519 407.293365,88.893105 
	C403.100983,88.714912 400.995972,90.222610 398.603333,93.644165 
	C393.404083,101.079117 387.323242,107.897583 381.142181,115.537407 
	C391.676483,129.207260 406.481873,136.106476 424.629639,137.230637 
	C424.629639,142.288971 424.629639,147.199249 424.629639,153.456314 
	C418.380280,152.437225 412.168732,151.892197 406.210999,150.360138 
	C391.589203,146.600037 379.412598,138.651749 369.865204,126.998131 
	C367.252228,123.808769 365.375275,123.165222 361.272614,124.504128 
	C353.781647,126.948822 345.887817,128.158981 337.455078,130.041946 
	C337.455078,123.682358 337.455078,118.658813 337.455078,113.786110 
	C344.299927,112.320740 351.038208,110.878181 357.986816,109.390594 
	C356.441711,102.590813 355.244812,96.620964 353.589966,90.780846 
	C353.335236,89.881790 350.985229,89.110382 349.586456,89.079292 
	C342.097382,88.912834 334.602661,88.999802 327.109894,88.999260 
	C325.313812,88.999130 323.517700,88.999237 321.363098,88.999237 
	C321.363098,83.617828 321.363098,78.717201 321.363098,73.000763 
	C323.312592,73.000763 325.232880,73.000778 327.153168,73.000763 
	C346.800842,73.000595 366.449432,72.904839 386.095398,73.088211 
	C389.638275,73.121292 391.324799,72.046455 391.744324,68.594368 
	C392.184540,64.972023 392.811188,61.372337 393.413940,57.381577 
	C398.253967,57.381577 403.166779,57.381577 409.032990,57.381577 
	C408.584503,62.389332 408.136688,67.389557 407.634155,73.000778 
	C414.126770,73.000778 420.580566,72.930626 427.031158,73.044098 
	C428.933105,73.077553 430.825958,73.630157 432.825867,74.400558 
M372.801361,89.011406 
	C371.909027,89.995766 370.195007,91.058670 370.280182,91.949570 
	C370.524353,94.503250 371.497589,96.987213 372.521210,100.731041 
	C376.209045,96.690788 379.183929,93.431656 382.329132,89.985924 
	C381.198181,89.382584 380.929291,89.118446 380.653412,89.110947 
	C378.335266,89.047966 376.015778,89.032005 372.801361,89.011406 
z"/>
<path fill="#FF9F1C" opacity="1.000000" stroke="none" 
	d="
M165.355667,137.000336 
	C164.087921,136.962051 163.269821,136.923996 161.745239,136.853088 
	C164.058685,130.998596 166.253143,125.445168 168.941544,118.641800 
	C171.596313,125.170578 173.826828,130.656006 176.406693,137.000580 
	C172.489075,137.000580 169.147202,137.000580 165.355667,137.000336 
z"/>
<path fill="#4C5C68" opacity="1.000000" stroke="none" 
	d="
M373.249023,89.006653 
	C376.015778,89.032005 378.335266,89.047966 380.653412,89.110947 
	C380.929291,89.118446 381.198181,89.382584 382.329132,89.985924 
	C379.183929,93.431656 376.209045,96.690788 372.521210,100.731041 
	C371.497589,96.987213 370.524353,94.503250 370.280182,91.949570 
	C370.195007,91.058670 371.909027,89.995766 373.249023,89.006653 
z"/>
</svg>