<svg version="1.1" id="Layer_1" xmlns="http://www.w3.org/2000/svg" xmlns:xlink="http://www.w3.org/1999/xlink" x="0px" y="0px"
	 width="100%" viewBox="0 0 512 512" enable-background="new 0 0 512 512" xml:space="preserve">
<path fill="#000000" opacity="1.000000" stroke="none" 
	d="
M513.000000,204.000000 
	C513.000000,307.308228 513.000000,410.116455 513.000000,512.962341 
	C342.400085,512.962341 171.800186,512.962341 1.100134,512.962341 
	C1.100134,342.441803 1.100134,171.883514 1.100134,1.162619 
	C171.666534,1.162619 342.333252,1.162619 513.000000,1.162619 
	C513.000000,68.533112 513.000000,136.016556 513.000000,204.000000 
M301.022156,468.974762 
	C301.022156,468.974762 301.096130,468.942322 301.353363,469.558655 
	C330.514374,495.020081 364.036102,504.050598 401.575165,494.275604 
	C454.656860,480.453522 488.045074,430.074707 480.775574,375.562195 
	C477.824066,353.429443 468.816315,333.854431 452.865051,317.047668 
	C425.731079,289.028748 392.677856,277.460541 354.475952,284.738159 
	C290.831085,296.862732 253.665222,358.130585 270.979401,420.656769 
	C272.384247,425.730072 271.514709,429.438599 266.096405,432.083923 
	C260.876801,432.806732 258.109314,430.350281 256.649933,425.435333 
	C251.544495,408.240936 250.442703,390.807983 252.820374,373.070557 
	C260.659363,314.591705 311.471466,269.113953 370.470917,267.879028 
	C376.548859,267.751801 382.631805,267.861969 388.947510,267.861969 
	C388.947510,250.664932 388.943176,233.525558 388.949554,216.386185 
	C388.952332,208.965530 390.002686,207.467438 396.864227,205.140579 
	C396.864227,198.883820 396.864227,192.578186 396.864227,186.293671 
	C389.655975,183.574829 388.951752,182.578217 388.949219,174.998306 
	C388.943237,157.008102 388.970367,139.017838 388.921112,121.027771 
	C388.913971,118.425919 388.559296,115.825020 388.348450,112.995766 
	C365.666901,112.995766 343.524719,113.039032 321.382843,112.982094 
	C303.620026,112.936417 292.009003,101.310593 291.973877,83.586288 
	C291.933258,63.097523 291.963837,42.608624 291.963470,22.119781 
	C291.963440,20.361305 291.963470,18.602827 291.963470,16.161947 
	C284.559204,16.161947 277.775635,16.161947 270.066498,16.011034 
	C195.754684,16.006824 121.442856,15.996390 47.131035,16.005724 
	C37.037056,16.006992 32.133068,20.907799 32.103920,30.990709 
	C32.067314,43.653664 31.891058,56.321480 32.181686,68.977859 
	C32.324715,75.206734 31.222338,80.023193 24.281757,80.773392 
	C24.281757,87.546341 24.281757,93.804146 24.281757,99.945465 
	C31.313526,102.571289 32.091866,103.680397 32.092091,111.033989 
	C32.095852,234.498795 32.094032,357.963593 32.096016,481.428406 
	C32.096210,493.599457 36.468292,498.000122 48.557419,498.000488 
	C123.702667,498.002686 198.847916,498.002563 273.993164,497.994568 
	C275.655273,497.994385 277.317383,497.891937 279.908569,497.990509 
	C291.254730,497.990509 302.600922,497.990509 314.937622,497.990509 
	C293.548859,483.765259 284.630768,475.761108 274.909454,462.297668 
	C271.188812,457.144806 271.255585,454.998688 276.035370,449.773163 
	C280.538635,447.644745 283.727386,449.296112 286.706238,452.931854 
	C290.952362,458.114258 295.577515,462.986115 300.188507,468.465240 
	C300.393402,468.767944 300.678497,468.911865 301.022156,468.974762 
M347.500000,98.002686 
	C357.400452,98.002686 367.300903,98.002686 376.911621,98.002686 
	C353.551483,74.623680 330.337311,51.390759 307.073944,28.108633 
	C307.044434,28.733675 306.962799,29.661234 306.962463,30.588827 
	C306.955627,48.414486 306.912476,66.240318 306.978546,84.065742 
	C307.011230,92.881424 312.107269,97.902115 321.011108,97.984543 
	C329.506714,98.063210 338.003662,98.002266 347.500000,98.002686 
z"/>
<path fill="#E4F5FC" opacity="1.000000" stroke="none" 
	d="
M278.979492,497.837219 
	C277.317383,497.891937 275.655273,497.994385 273.993164,497.994568 
	C198.847916,498.002563 123.702667,498.002686 48.557419,498.000488 
	C36.468292,498.000122 32.096210,493.599457 32.096016,481.428406 
	C32.094032,357.963593 32.095852,234.498795 32.092091,111.033989 
	C32.091866,103.680397 31.313526,102.571289 24.281757,99.945465 
	C24.281757,93.804146 24.281757,87.546341 24.281757,80.773392 
	C31.222338,80.023193 32.324715,75.206734 32.181686,68.977859 
	C31.891058,56.321480 32.067314,43.653664 32.103920,30.990709 
	C32.133068,20.907799 37.037056,16.006992 47.131035,16.005724 
	C121.442856,15.996390 195.754684,16.006824 270.532715,16.544838 
	C271.000427,40.069328 270.756714,63.063656 271.098358,86.049286 
	C271.293396,99.173851 276.273315,110.842659 285.710052,119.950623 
	C295.661346,129.555176 308.014740,134.038300 321.928772,134.002518 
	C333.590637,133.972534 345.252716,133.982819 356.914642,134.001419 
	C364.588959,134.013672 367.990601,137.315414 367.995026,144.825729 
	C368.012848,175.313446 368.012878,205.801163 367.994476,236.288879 
	C367.990265,243.261581 364.086151,247.268265 357.141357,248.025787 
	C343.533142,249.510117 330.330414,252.818466 317.952362,258.645386 
	C308.659485,263.019989 299.774628,268.261353 290.470581,272.867126 
	C288.651947,268.507111 285.332123,267.709595 281.381775,267.713562 
	C241.433456,267.753876 201.485092,267.737122 161.536728,267.745270 
	C160.540344,267.745453 159.527939,267.753174 158.550430,267.919037 
	C154.715912,268.569672 152.171509,271.249084 152.619888,274.723846 
	C152.958328,277.346771 155.278915,280.065399 157.408066,281.968750 
	C158.608673,283.042023 161.207169,282.733337 163.176575,282.737122 
	C185.813889,282.780853 208.451370,282.736725 231.088715,282.774841 
	C246.727631,282.801178 262.366364,282.919220 277.951477,283.330444 
	C272.555328,289.567108 267.212891,295.469604 261.473694,301.236877 
	C258.646576,300.734833 256.216553,300.050049 253.785858,300.047699 
	C192.019623,299.988708 130.253311,300.000580 68.487007,300.005066 
	C66.989746,300.005188 65.447144,299.840668 64.003975,300.135803 
	C60.139156,300.926025 57.774658,303.301270 57.730778,307.362518 
	C57.684387,311.655273 60.091053,314.150024 64.216957,314.902191 
	C65.670105,315.167114 67.205742,314.996246 68.703712,314.996338 
	C113.654930,314.999329 158.606140,314.984650 203.557358,315.006348 
	C219.702423,315.014160 235.847473,315.108185 251.835541,315.459930 
	C248.741394,321.633026 245.804230,327.509064 242.471649,333.261597 
	C239.785248,332.837219 237.494476,332.275635 235.203217,332.273621 
	C179.610947,332.224731 124.018600,332.228943 68.426300,332.262451 
	C66.455841,332.263641 64.382607,332.344116 62.537140,332.942444 
	C58.889172,334.125122 57.372353,336.973236 57.774330,340.721375 
	C58.156013,344.280243 60.219223,346.503723 63.762543,347.063110 
	C65.554832,347.346100 67.413399,347.255127 69.242012,347.255402 
	C123.336342,347.263641 177.430664,347.259796 231.524994,347.272034 
	C233.347870,347.272461 235.170715,347.419769 236.970551,347.866699 
	C235.603729,353.907471 234.259933,359.580170 232.457245,365.174042 
	C217.737274,364.994904 203.475876,364.800629 189.215332,364.850861 
	C184.880798,364.866150 182.497375,367.803680 182.272705,371.873657 
	C182.057541,375.771332 184.274597,378.476288 188.171661,379.383392 
	C189.760056,379.753113 191.457672,379.748077 193.105896,379.751343 
	C205.715027,379.776245 218.324265,379.761108 230.953430,380.241821 
	C231.301590,389.509094 231.253281,398.326447 232.031235,407.070251 
	C234.058762,429.858887 241.849442,450.791840 254.915756,469.407837 
	C262.019257,479.528442 270.900238,488.401489 278.979492,497.837219 
M219.500000,203.001862 
	C169.353638,203.001877 119.207283,203.000076 69.060921,203.009109 
	C67.231201,203.009430 65.320854,202.798447 63.588310,203.238312 
	C59.788071,204.203094 57.566658,206.735413 57.734573,210.819443 
	C57.901867,214.888367 60.268265,217.195465 64.161041,217.913376 
	C65.452606,218.151566 66.819473,217.996017 68.151909,217.996063 
	C156.282898,217.998367 244.413879,217.998306 332.544861,217.996307 
	C333.877350,217.996277 335.238098,218.138748 336.537018,217.922516 
	C340.430847,217.274323 342.882263,215.060211 343.111389,210.976257 
	C343.355042,206.633408 340.984253,204.098740 336.935608,203.175003 
	C335.344971,202.812088 333.619141,203.007294 331.954865,203.006989 
	C294.803253,203.000320 257.651611,203.001877 219.500000,203.001862 
M158.499924,185.827805 
	C194.795914,185.827805 231.091934,185.836487 267.387878,185.804092 
	C269.362061,185.802338 271.409302,185.727234 273.294281,185.214584 
	C276.996918,184.207642 278.822205,181.377441 278.541840,177.714233 
	C278.245483,173.841797 275.986969,171.287354 271.874481,170.875793 
	C270.719269,170.760193 269.545807,170.811691 268.380737,170.811646 
	C201.616058,170.809113 134.851379,170.808792 68.086700,170.812256 
	C66.755402,170.812317 65.406273,170.729401 64.096176,170.909103 
	C60.304749,171.429199 58.110168,173.686478 57.759430,177.471344 
	C57.411533,181.225525 59.023933,184.028915 62.695847,185.143402 
	C64.558647,185.708801 66.619606,185.798553 68.591377,185.801117 
	C98.227516,185.839645 127.863716,185.827805 158.499924,185.827805 
M259.499512,153.353287 
	C283.651978,153.353226 307.804413,153.358582 331.956879,153.342255 
	C333.784515,153.341019 335.660431,153.419113 337.429321,153.052338 
	C340.919189,152.328659 343.509308,149.898392 342.927185,146.475021 
	C342.471771,143.796646 340.468201,140.974518 338.353699,139.133896 
	C337.029602,137.981339 334.225647,138.342422 332.085480,138.341110 
	C275.951843,138.306763 219.818192,138.309021 163.684540,138.334000 
	C161.703812,138.334885 159.654709,138.363708 157.757080,138.848068 
	C154.016861,139.802765 152.221298,142.650650 152.439392,146.303787 
	C152.656754,149.944534 154.724823,152.552399 158.572540,153.127121 
	C160.371170,153.395767 162.225754,153.344498 164.055008,153.345169 
	C195.536499,153.356506 227.017990,153.353271 259.499512,153.353287 
M169.476807,250.262482 
	C172.638977,250.239624 175.812790,250.379257 178.960434,250.153595 
	C183.082306,249.858093 185.328674,247.162155 185.627197,243.321487 
	C185.910522,239.676254 184.047867,236.897308 180.359833,235.820282 
	C178.949966,235.408554 177.417297,235.259689 175.940353,235.258469 
	C139.817627,235.228821 103.694885,235.227203 67.572182,235.261337 
	C65.931618,235.262878 64.211403,235.399017 62.667049,235.900116 
	C59.013313,237.085663 57.405037,239.849854 57.762356,243.602951 
	C58.122963,247.390472 60.314865,249.659958 64.117508,250.136246 
	C65.759361,250.341873 67.440971,250.258057 69.104530,250.258331 
	C102.230911,250.263870 135.357300,250.262466 169.476807,250.262482 
M103.500114,364.737671 
	C90.858353,364.741577 78.215973,364.675049 65.575127,364.784607 
	C60.623493,364.827484 57.817230,367.561768 57.695267,371.917847 
	C57.575130,376.208618 60.370655,379.166443 65.089714,379.710602 
	C65.747688,379.786469 66.418709,379.762543 67.083687,379.762573 
	C96.525780,379.764557 125.967911,379.787506 155.409943,379.744507 
	C161.442780,379.735687 165.066818,376.621857 164.900925,371.908997 
	C164.741409,367.377472 161.344177,364.759918 155.399994,364.749542 
	C138.433411,364.719910 121.466751,364.738220 103.500114,364.737671 
M251.500092,235.234070 
	C238.351593,235.234680 225.202606,235.170013 212.054794,235.266037 
	C206.296234,235.308075 202.909653,238.393326 203.039764,243.049332 
	C203.164200,247.502396 206.438309,250.235931 211.977295,250.246872 
	C232.448944,250.287338 252.920731,250.281601 273.392395,250.250107 
	C279.239960,250.241104 282.680725,247.447525 282.705536,242.881989 
	C282.730103,238.363998 279.175568,235.333298 273.470795,235.257401 
	C266.481689,235.164413 259.490417,235.234497 251.500092,235.234070 
M134.957520,144.801056 
	C133.983139,140.378052 131.037811,138.362900 126.703857,138.335861 
	C116.538528,138.272430 106.371048,138.212524 96.207420,138.358398 
	C91.003517,138.433075 87.995255,141.361008 87.949081,145.793076 
	C87.900818,150.425720 90.987602,153.265671 96.553139,153.320648 
	C106.551231,153.419418 116.551949,153.429810 126.549698,153.314423 
	C132.088669,153.250504 133.980667,151.365829 134.957520,144.801056 
M91.726601,268.723114 
	C88.241768,270.840454 87.095558,274.005157 88.375648,277.718933 
	C89.684418,281.515869 92.885750,282.780914 96.716835,282.771759 
	C105.213188,282.751404 113.709724,282.789459 122.205948,282.751129 
	C124.527214,282.740662 126.914383,282.850861 129.153687,282.364288 
	C133.068878,281.513641 135.185547,278.772186 134.937134,274.773132 
	C134.691772,270.823547 132.395187,267.960205 128.359253,267.926788 
	C116.383987,267.827698 104.405518,268.115021 91.726601,268.723114 
M325.485962,170.806870 
	C318.844238,170.806900 312.202423,170.785995 305.560822,170.813034 
	C299.321991,170.838425 295.917938,173.537689 295.999390,178.326004 
	C296.080261,183.081055 299.533081,185.772949 305.775940,185.818344 
	C312.583344,185.867844 319.391418,185.839066 326.199158,185.826035 
	C329.518799,185.819672 332.862579,186.013382 336.152161,185.684113 
	C340.760040,185.222916 343.442200,181.906357 343.143463,177.606613 
	C342.860107,173.528870 340.060089,171.002838 335.443878,170.836319 
	C332.458893,170.728638 329.467072,170.810150 325.485962,170.806870 
z"/>
<path fill="#FEE076" opacity="1.000000" stroke="none" 
	d="
M266.924683,432.115051 
	C271.514709,429.438599 272.384247,425.730072 270.979401,420.656769 
	C253.665222,358.130585 290.831085,296.862732 354.475952,284.738159 
	C392.677856,277.460541 425.731079,289.028748 452.965332,317.753845 
	C453.100342,318.956635 453.014740,319.500031 453.187134,319.943054 
	C460.489075,338.706146 462.707428,358.043732 460.031921,378.000885 
	C457.582825,396.269623 451.067841,412.962189 440.466064,427.954529 
	C429.083435,444.051086 414.547455,456.678436 396.515503,465.764709 
	C391.437225,465.792725 386.823425,465.792725 382.092896,465.792725 
	C382.092896,456.135498 382.092896,447.084534 382.092896,437.931244 
	C384.013397,437.582031 385.650452,437.312836 387.275543,436.984467 
	C405.146271,433.373535 419.605621,424.306641 430.561035,409.738129 
	C433.899414,405.298798 433.566895,401.099213 429.936859,398.262512 
	C426.262543,395.391174 421.940887,396.526489 418.059509,401.382721 
	C394.694336,430.616364 353.240845,430.562164 330.176117,401.267853 
	C326.445831,396.530029 321.932220,395.419037 318.282501,398.340302 
	C314.802032,401.126038 314.697815,405.727112 318.198639,410.292084 
	C328.155151,423.275116 341.048279,431.898529 356.900635,436.012634 
	C360.081207,436.838074 363.326294,437.415009 366.484375,438.094208 
	C366.484375,447.354462 366.484375,456.278320 366.484375,465.741669 
	C362.616089,465.741669 359.000061,465.718689 355.384460,465.746338 
	C347.115753,465.809540 344.642731,468.838531 345.724579,476.968079 
	C340.786377,476.807983 336.203156,477.224854 331.890503,476.333221 
	C321.558044,474.196960 311.352753,471.445496 301.096130,468.942322 
	C301.096130,468.942322 301.022156,468.974762 300.923889,468.727661 
	C300.621185,468.225647 300.359558,468.062347 300.040771,467.990631 
	C295.577515,462.986115 290.952362,458.114258 286.706238,452.931854 
	C283.727386,449.296112 280.538635,447.644745 275.549316,449.510956 
	C272.350403,443.537506 269.637543,437.826294 266.924683,432.115051 
M402.101440,312.417603 
	C390.826202,300.841797 377.310425,296.904785 362.024536,302.176941 
	C346.585388,307.501984 337.720947,318.944855 336.641815,335.266754 
	C335.853394,347.191803 335.778290,359.271423 336.709259,371.178619 
	C338.257294,390.978271 354.108063,405.517181 373.258270,405.931213 
	C392.522614,406.347717 409.199829,392.604736 411.475616,372.987091 
	C412.772003,361.811920 411.889008,350.384796 412.003296,339.071320 
	C412.103088,329.191223 409.056458,320.453064 402.101440,312.417603 
z"/>
<path fill="#D1ECFB" opacity="1.000000" stroke="none" 
	d="
M266.510559,432.099487 
	C269.637543,437.826294 272.350403,443.537506 275.178589,449.591553 
	C271.255585,454.998688 271.188812,457.144806 274.909454,462.297668 
	C284.630768,475.761108 293.548859,483.765259 314.937622,497.990509 
	C302.600922,497.990509 291.254730,497.990509 279.444031,497.913879 
	C270.900238,488.401489 262.019257,479.528442 254.915756,469.407837 
	C241.849442,450.791840 234.058762,429.858887 232.031235,407.070251 
	C231.253281,398.326447 231.301590,389.509094 231.198547,380.011719 
	C238.289246,375.736053 238.794662,370.979492 232.916138,365.252838 
	C234.259933,359.580170 235.603729,353.907471 237.363266,347.757935 
	C240.379074,345.706787 243.823334,344.705505 245.374863,342.419586 
	C247.525162,339.251434 245.498444,335.932098 242.867065,333.385071 
	C245.804230,327.509064 248.741394,321.633026 252.266266,315.383728 
	C257.030914,315.062927 261.400208,315.512665 263.793671,310.927002 
	C265.694458,307.285339 264.325684,304.193207 261.870453,301.372131 
	C267.212891,295.469604 272.555328,289.567108 278.365295,283.221741 
	C288.267059,282.709137 290.663452,280.759369 290.708130,273.116821 
	C299.774628,268.261353 308.659485,263.019989 317.952362,258.645386 
	C330.330414,252.818466 343.533142,249.510117 357.141357,248.025787 
	C364.086151,247.268265 367.990265,243.261581 367.994476,236.288879 
	C368.012878,205.801163 368.012848,175.313446 367.995026,144.825729 
	C367.990601,137.315414 364.588959,134.013672 356.914642,134.001419 
	C345.252716,133.982819 333.590637,133.972534 321.928772,134.002518 
	C308.014740,134.038300 295.661346,129.555176 285.710052,119.950623 
	C276.273315,110.842659 271.293396,99.173851 271.098358,86.049286 
	C270.756714,63.063656 271.000427,40.069328 270.995483,16.620296 
	C277.775635,16.161947 284.559204,16.161947 291.963470,16.161947 
	C291.963470,18.602827 291.963440,20.361305 291.963470,22.119781 
	C291.963837,42.608624 291.933258,63.097523 291.973877,83.586288 
	C292.009003,101.310593 303.620026,112.936417 321.382843,112.982094 
	C343.524719,113.039032 365.666901,112.995766 388.348450,112.995766 
	C388.559296,115.825020 388.913971,118.425919 388.921112,121.027771 
	C388.970367,139.017838 388.943237,157.008102 388.949219,174.998306 
	C388.951752,182.578217 389.655975,183.574829 396.864227,186.293671 
	C396.864227,192.578186 396.864227,198.883820 396.864227,205.140579 
	C390.002686,207.467438 388.952332,208.965530 388.949554,216.386185 
	C388.943176,233.525558 388.947510,250.664932 388.947510,267.861969 
	C382.631805,267.861969 376.548859,267.751801 370.470917,267.879028 
	C311.471466,269.113953 260.659363,314.591705 252.820374,373.070557 
	C250.442703,390.807983 251.544495,408.240936 256.649933,425.435333 
	C258.109314,430.350281 260.876801,432.806732 266.510559,432.099487 
z"/>
<path fill="#FDCF5A" opacity="1.000000" stroke="none" 
	d="
M396.980011,465.736664 
	C414.547455,456.678436 429.083435,444.051086 440.466064,427.954529 
	C451.067841,412.962189 457.582825,396.269623 460.031921,378.000885 
	C462.707428,358.043732 460.489075,338.706146 453.187134,319.943054 
	C453.014740,319.500031 453.100342,318.956635 453.091400,318.051208 
	C468.816315,333.854431 477.824066,353.429443 480.775574,375.562195 
	C488.045074,430.074707 454.656860,480.453522 401.575165,494.275604 
	C364.036102,504.050598 330.514374,495.020081 301.224731,469.250488 
	C311.352753,471.445496 321.558044,474.196960 331.890503,476.333221 
	C336.203156,477.224854 340.786377,476.807983 346.013794,477.151184 
	C349.387482,478.463867 351.969421,480.533112 354.604462,480.603149 
	C367.536377,480.946747 380.482574,480.723358 393.423401,480.778107 
	C397.830841,480.796722 401.490540,479.508057 402.613495,474.895294 
	C403.747833,470.235657 401.184631,467.363647 396.980011,465.736664 
z"/>
<path fill="#678DD3" opacity="1.000000" stroke="none" 
	d="
M347.000000,98.002686 
	C338.003662,98.002266 329.506714,98.063210 321.011108,97.984543 
	C312.107269,97.902115 307.011230,92.881424 306.978546,84.065742 
	C306.912476,66.240318 306.955627,48.414486 306.962463,30.588827 
	C306.962799,29.661234 307.044434,28.733675 307.073944,28.108633 
	C330.337311,51.390759 353.551483,74.623680 376.911621,98.002686 
	C367.300903,98.002686 357.400452,98.002686 347.000000,98.002686 
z"/>
<path fill="#FDCF5A" opacity="1.000000" stroke="none" 
	d="
M300.114624,468.227936 
	C300.359558,468.062347 300.621185,468.225647 300.934692,468.688721 
	C300.678497,468.911865 300.393402,468.767944 300.114624,468.227936 
z"/>
<path fill="#000000" opacity="1.000000" stroke="none" 
	d="
M220.000000,203.001862 
	C257.651611,203.001877 294.803253,203.000320 331.954865,203.006989 
	C333.619141,203.007294 335.344971,202.812088 336.935608,203.175003 
	C340.984253,204.098740 343.355042,206.633408 343.111389,210.976257 
	C342.882263,215.060211 340.430847,217.274323 336.537018,217.922516 
	C335.238098,218.138748 333.877350,217.996277 332.544861,217.996307 
	C244.413879,217.998306 156.282898,217.998367 68.151909,217.996063 
	C66.819473,217.996017 65.452606,218.151566 64.161041,217.913376 
	C60.268265,217.195465 57.901867,214.888367 57.734573,210.819443 
	C57.566658,206.735413 59.788071,204.203094 63.588310,203.238312 
	C65.320854,202.798447 67.231201,203.009430 69.060921,203.009109 
	C119.207283,203.000076 169.353638,203.001877 220.000000,203.001862 
z"/>
<path fill="#040505" opacity="1.000000" stroke="none" 
	d="
M157.999908,185.827805 
	C127.863716,185.827805 98.227516,185.839645 68.591377,185.801117 
	C66.619606,185.798553 64.558647,185.708801 62.695847,185.143402 
	C59.023933,184.028915 57.411533,181.225525 57.759430,177.471344 
	C58.110168,173.686478 60.304749,171.429199 64.096176,170.909103 
	C65.406273,170.729401 66.755402,170.812317 68.086700,170.812256 
	C134.851379,170.808792 201.616058,170.809113 268.380737,170.811646 
	C269.545807,170.811691 270.719269,170.760193 271.874481,170.875793 
	C275.986969,171.287354 278.245483,173.841797 278.541840,177.714233 
	C278.822205,181.377441 276.996918,184.207642 273.294281,185.214584 
	C271.409302,185.727234 269.362061,185.802338 267.387878,185.804092 
	C231.091934,185.836487 194.795914,185.827805 157.999908,185.827805 
z"/>
<path fill="#000101" opacity="1.000000" stroke="none" 
	d="
M261.473694,301.236877 
	C264.325684,304.193207 265.694458,307.285339 263.793671,310.927002 
	C261.400208,315.512665 257.030914,315.062927 252.423248,315.086609 
	C235.847473,315.108185 219.702423,315.014160 203.557358,315.006348 
	C158.606140,314.984650 113.654930,314.999329 68.703712,314.996338 
	C67.205742,314.996246 65.670105,315.167114 64.216957,314.902191 
	C60.091053,314.150024 57.684387,311.655273 57.730778,307.362518 
	C57.774658,303.301270 60.139156,300.926025 64.003975,300.135803 
	C65.447144,299.840668 66.989746,300.005188 68.487007,300.005066 
	C130.253311,300.000580 192.019623,299.988708 253.785858,300.047699 
	C256.216553,300.050049 258.646576,300.734833 261.473694,301.236877 
z"/>
<path fill="#060707" opacity="1.000000" stroke="none" 
	d="
M258.999512,153.353271 
	C227.017990,153.353271 195.536499,153.356506 164.055008,153.345169 
	C162.225754,153.344498 160.371170,153.395767 158.572540,153.127121 
	C154.724823,152.552399 152.656754,149.944534 152.439392,146.303787 
	C152.221298,142.650650 154.016861,139.802765 157.757080,138.848068 
	C159.654709,138.363708 161.703812,138.334885 163.684540,138.334000 
	C219.818192,138.309021 275.951843,138.306763 332.085480,138.341110 
	C334.225647,138.342422 337.029602,137.981339 338.353699,139.133896 
	C340.468201,140.974518 342.471771,143.796646 342.927185,146.475021 
	C343.509308,149.898392 340.919189,152.328659 337.429321,153.052338 
	C335.660431,153.419113 333.784515,153.341019 331.956879,153.342255 
	C307.804413,153.358582 283.651978,153.353226 258.999512,153.353271 
z"/>
<path fill="#050606" opacity="1.000000" stroke="none" 
	d="
M242.471649,333.261597 
	C245.498444,335.932098 247.525162,339.251434 245.374863,342.419586 
	C243.823334,344.705505 240.379074,345.706787 237.386292,347.389832 
	C235.170715,347.419769 233.347870,347.272461 231.524994,347.272034 
	C177.430664,347.259796 123.336342,347.263641 69.242012,347.255402 
	C67.413399,347.255127 65.554832,347.346100 63.762543,347.063110 
	C60.219223,346.503723 58.156013,344.280243 57.774330,340.721375 
	C57.372353,336.973236 58.889172,334.125122 62.537140,332.942444 
	C64.382607,332.344116 66.455841,332.263641 68.426300,332.262451 
	C124.018600,332.228943 179.610947,332.224731 235.203217,332.273621 
	C237.494476,332.275635 239.785248,332.837219 242.471649,333.261597 
z"/>
<path fill="#050606" opacity="1.000000" stroke="none" 
	d="
M290.470581,272.867126 
	C290.663452,280.759369 288.267059,282.709137 278.419006,282.887604 
	C262.366364,282.919220 246.727631,282.801178 231.088715,282.774841 
	C208.451370,282.736725 185.813889,282.780853 163.176575,282.737122 
	C161.207169,282.733337 158.608673,283.042023 157.408066,281.968750 
	C155.278915,280.065399 152.958328,277.346771 152.619888,274.723846 
	C152.171509,271.249084 154.715912,268.569672 158.550430,267.919037 
	C159.527939,267.753174 160.540344,267.745453 161.536728,267.745270 
	C201.485092,267.737122 241.433456,267.753876 281.381775,267.713562 
	C285.332123,267.709595 288.651947,268.507111 290.470581,272.867126 
z"/>
<path fill="#050606" opacity="1.000000" stroke="none" 
	d="
M168.980240,250.262482 
	C135.357300,250.262466 102.230911,250.263870 69.104530,250.258331 
	C67.440971,250.258057 65.759361,250.341873 64.117508,250.136246 
	C60.314865,249.659958 58.122963,247.390472 57.762356,243.602951 
	C57.405037,239.849854 59.013313,237.085663 62.667049,235.900116 
	C64.211403,235.399017 65.931618,235.262878 67.572182,235.261337 
	C103.694885,235.227203 139.817627,235.228821 175.940353,235.258469 
	C177.417297,235.259689 178.949966,235.408554 180.359833,235.820282 
	C184.047867,236.897308 185.910522,239.676254 185.627197,243.321487 
	C185.328674,247.162155 183.082306,249.858093 178.960434,250.153595 
	C175.812790,250.379257 172.638977,250.239624 168.980240,250.262482 
z"/>
<path fill="#050606" opacity="1.000000" stroke="none" 
	d="
M104.000122,364.737671 
	C121.466751,364.738220 138.433411,364.719910 155.399994,364.749542 
	C161.344177,364.759918 164.741409,367.377472 164.900925,371.908997 
	C165.066818,376.621857 161.442780,379.735687 155.409943,379.744507 
	C125.967911,379.787506 96.525780,379.764557 67.083687,379.762573 
	C66.418709,379.762543 65.747688,379.786469 65.089714,379.710602 
	C60.370655,379.166443 57.575130,376.208618 57.695267,371.917847 
	C57.817230,367.561768 60.623493,364.827484 65.575127,364.784607 
	C78.215973,364.675049 90.858353,364.741577 104.000122,364.737671 
z"/>
<path fill="#060606" opacity="1.000000" stroke="none" 
	d="
M252.000092,235.234070 
	C259.490417,235.234497 266.481689,235.164413 273.470795,235.257401 
	C279.175568,235.333298 282.730103,238.363998 282.705536,242.881989 
	C282.680725,247.447525 279.239960,250.241104 273.392395,250.250107 
	C252.920731,250.281601 232.448944,250.287338 211.977295,250.246872 
	C206.438309,250.235931 203.164200,247.502396 203.039764,243.049332 
	C202.909653,238.393326 206.296234,235.308075 212.054794,235.266037 
	C225.202606,235.170013 238.351593,235.234680 252.000092,235.234070 
z"/>
<path fill="#060606" opacity="1.000000" stroke="none" 
	d="
M232.457245,365.174042 
	C238.794662,370.979492 238.289246,375.736053 231.178589,379.528290 
	C218.324265,379.761108 205.715027,379.776245 193.105896,379.751343 
	C191.457672,379.748077 189.760056,379.753113 188.171661,379.383392 
	C184.274597,378.476288 182.057541,375.771332 182.272705,371.873657 
	C182.497375,367.803680 184.880798,364.866150 189.215332,364.850861 
	C203.475876,364.800629 217.737274,364.994904 232.457245,365.174042 
z"/>
<path fill="#070707" opacity="1.000000" stroke="none" 
	d="
M134.981003,145.198517 
	C133.980667,151.365829 132.088669,153.250504 126.549698,153.314423 
	C116.551949,153.429810 106.551231,153.419418 96.553139,153.320648 
	C90.987602,153.265671 87.900818,150.425720 87.949081,145.793076 
	C87.995255,141.361008 91.003517,138.433075 96.207420,138.358398 
	C106.371048,138.212524 116.538528,138.272430 126.703857,138.335861 
	C131.037811,138.362900 133.983139,140.378052 134.981003,145.198517 
z"/>
<path fill="#060606" opacity="1.000000" stroke="none" 
	d="
M92.077454,268.487183 
	C104.405518,268.115021 116.383987,267.827698 128.359253,267.926788 
	C132.395187,267.960205 134.691772,270.823547 134.937134,274.773132 
	C135.185547,278.772186 133.068878,281.513641 129.153687,282.364288 
	C126.914383,282.850861 124.527214,282.740662 122.205948,282.751129 
	C113.709724,282.789459 105.213188,282.751404 96.716835,282.771759 
	C92.885750,282.780914 89.684418,281.515869 88.375648,277.718933 
	C87.095558,274.005157 88.241768,270.840454 92.077454,268.487183 
z"/>
<path fill="#050505" opacity="1.000000" stroke="none" 
	d="
M325.982147,170.806885 
	C329.467072,170.810150 332.458893,170.728638 335.443878,170.836319 
	C340.060089,171.002838 342.860107,173.528870 343.143463,177.606613 
	C343.442200,181.906357 340.760040,185.222916 336.152161,185.684113 
	C332.862579,186.013382 329.518799,185.819672 326.199158,185.826035 
	C319.391418,185.839066 312.583344,185.867844 305.775940,185.818344 
	C299.533081,185.772949 296.080261,183.081055 295.999390,178.326004 
	C295.917938,173.537689 299.321991,170.838425 305.560822,170.813034 
	C312.202423,170.785995 318.844238,170.806900 325.982147,170.806885 
z"/>
<path fill="#030302" opacity="1.000000" stroke="none" 
	d="
M402.344177,312.681091 
	C409.056458,320.453064 412.103088,329.191223 412.003296,339.071320 
	C411.889008,350.384796 412.772003,361.811920 411.475616,372.987091 
	C409.199829,392.604736 392.522614,406.347717 373.258270,405.931213 
	C354.108063,405.517181 338.257294,390.978271 336.709259,371.178619 
	C335.778290,359.271423 335.853394,347.191803 336.641815,335.266754 
	C337.720947,318.944855 346.585388,307.501984 362.024536,302.176941 
	C377.310425,296.904785 390.826202,300.841797 402.344177,312.681091 
M392.373077,381.762787 
	C393.913544,376.615662 396.360901,371.543243 396.792175,366.304779 
	C397.526855,357.381500 397.025177,348.353821 396.987152,339.370209 
	C396.928375,325.479431 387.491669,315.229767 374.618866,315.015472 
	C361.448975,314.796234 351.543823,324.889618 351.318848,338.983093 
	C351.170135,348.297211 351.195221,357.616821 351.315247,366.931763 
	C351.454926,377.771973 357.066895,386.067200 366.320343,389.480316 
	C375.529236,392.877014 384.482147,390.385345 392.373077,381.762787 
z"/>
<path fill="#050402" opacity="1.000000" stroke="none" 
	d="
M396.515503,465.764709 
	C401.184631,467.363647 403.747833,470.235657 402.613495,474.895294 
	C401.490540,479.508057 397.830841,480.796722 393.423401,480.778107 
	C380.482574,480.723358 367.536377,480.946747 354.604462,480.603149 
	C351.969421,480.533112 349.387482,478.463867 346.491821,477.133148 
	C344.642731,468.838531 347.115753,465.809540 355.384460,465.746338 
	C359.000061,465.718689 362.616089,465.741669 366.484375,465.741669 
	C366.484375,456.278320 366.484375,447.354462 366.484375,438.094208 
	C363.326294,437.415009 360.081207,436.838074 356.900635,436.012634 
	C341.048279,431.898529 328.155151,423.275116 318.198639,410.292084 
	C314.697815,405.727112 314.802032,401.126038 318.282501,398.340302 
	C321.932220,395.419037 326.445831,396.530029 330.176117,401.267853 
	C353.240845,430.562164 394.694336,430.616364 418.059509,401.382721 
	C421.940887,396.526489 426.262543,395.391174 429.936859,398.262512 
	C433.566895,401.099213 433.899414,405.298798 430.561035,409.738129 
	C419.605621,424.306641 405.146271,433.373535 387.275543,436.984467 
	C385.650452,437.312836 384.013397,437.582031 382.092896,437.931244 
	C382.092896,447.084534 382.092896,456.135498 382.092896,465.792725 
	C386.823425,465.792725 391.437225,465.792725 396.515503,465.764709 
z"/>
<path fill="#678DD3" opacity="1.000000" stroke="none" 
	d="
M392.155457,382.056732 
	C384.482147,390.385345 375.529236,392.877014 366.320343,389.480316 
	C357.066895,386.067200 351.454926,377.771973 351.315247,366.931763 
	C351.195221,357.616821 351.170135,348.297211 351.318848,338.983093 
	C351.543823,324.889618 361.448975,314.796234 374.618866,315.015472 
	C387.491669,315.229767 396.928375,325.479431 396.987152,339.370209 
	C397.025177,348.353821 397.526855,357.381500 396.792175,366.304779 
	C396.360901,371.543243 393.913544,376.615662 392.155457,382.056732 
z"/>
</svg>