<?xml version="1.0" standalone="no"?>
<!DOCTYPE svg PUBLIC "-//W3C//DTD SVG 20010904//EN"
 "http://www.w3.org/TR/2001/REC-SVG-20010904/DTD/svg10.dtd">
<svg version="1.0" xmlns="http://www.w3.org/2000/svg"
 width="512.000000pt" height="512.000000pt" viewBox="0 0 512.000000 512.000000"
 preserveAspectRatio="xMidYMid meet">

<g transform="translate(0.000000,512.000000) scale(0.100000,-0.100000)"
fill="#000000" stroke="none">
<path d="M3218 4956 c-69 -25 -125 -66 -199 -144 -73 -78 -128 -158 -152 -221
-10 -28 -9 -33 15 -58 l27 -26 52 16 c67 22 107 21 147 -3 30 -18 40 -35 71
-112 5 -15 28 -39 50 -52 22 -14 47 -39 57 -55 15 -25 20 -28 40 -19 20 9 23
16 18 52 -13 108 90 141 186 61 35 -30 50 -35 91 -35 27 0 65 7 85 15 28 11
34 18 30 37 -3 13 -8 59 -11 103 -8 99 -31 208 -56 256 -66 130 -316 233 -451
185z"/>
<path d="M1605 4637 c-90 -23 -162 -87 -196 -172 -6 -16 -12 -64 -12 -105 -1
-62 3 -84 26 -130 37 -77 133 -208 112 -155 -12 31 -14 225 -2 232 5 3 37 7
71 8 85 3 186 40 264 97 61 44 68 46 87 34 l22 -14 -17 60 c-9 33 -26 71 -38
83 -51 53 -222 86 -317 62z"/>
<path d="M3796 4279 c-62 -73 -109 -210 -220 -634 -36 -137 -85 -315 -109
-395 l-43 -145 -150 -6 c-82 -4 -153 -7 -158 -8 -12 -1 2 -215 14 -219 5 -2
20 -12 34 -23 28 -22 33 -56 16 -90 -10 -18 -7 -19 80 -19 79 0 90 -2 90 -17
0 -10 -5 -70 -10 -134 -5 -65 -6 -146 -1 -184 6 -53 5 -68 -6 -72 -8 -3 -19 1
-26 9 -57 71 -212 125 -421 148 -107 12 -211 43 -280 84 -34 20 -47 35 -59 70
l-15 44 91 6 c362 25 354 23 117 25 -595 6 -2477 4 -2469 -3 2 -2 130 -9 284
-15 154 -6 326 -14 381 -17 l102 -6 -24 -92 c-32 -117 -54 -176 -105 -278 -23
-46 -53 -112 -66 -147 -54 -145 -89 -529 -51 -568 14 -13 23 -15 45 -7 28 10
48 37 206 284 l77 122 68 -64 c38 -35 83 -70 101 -78 30 -12 32 -16 27 -44
-15 -74 -18 -227 -7 -292 11 -63 42 -182 118 -456 26 -98 37 -111 71 -90 10 7
12 155 10 707 l-3 698 -72 25 c-40 13 -73 29 -73 35 0 7 23 62 51 123 l52 112
385 7 386 8 23 -29 c14 -18 23 -23 23 -14 0 8 16 -13 35 -48 38 -68 40 -72 25
-72 -6 0 -47 -28 -93 -62 -45 -35 -110 -76 -145 -93 -61 -29 -62 -31 -58 -65
20 -144 22 -128 -34 -208 -29 -40 -56 -72 -60 -70 -5 2 -38 29 -74 61 -59 53
-66 62 -66 96 0 21 -3 59 -6 84 -6 43 -9 46 -43 51 -20 4 -48 9 -63 12 l-28 6
0 -661 c0 -480 3 -661 11 -661 6 0 29 17 50 39 l39 39 0 317 c0 428 8 458 131
475 35 4 128 11 205 15 l141 7 6 -24 c4 -13 23 -45 44 -72 l37 -48 -23 -66
c-26 -74 -189 -481 -244 -608 -25 -58 -32 -85 -25 -97 13 -24 71 -51 160 -76
42 -11 114 -38 160 -59 l84 -39 113 216 c94 180 112 209 108 174 -5 -41 -4
-43 20 -43 14 0 65 -18 114 -40 49 -22 94 -40 99 -40 5 0 28 -16 50 -36 23
-21 40 -31 40 -23 0 8 25 176 54 374 30 198 52 363 50 366 -2 4 -27 9 -55 13
l-51 7 89 92 c48 51 141 158 205 238 139 174 295 335 398 411 142 106 262 151
640 245 102 25 188 49 193 53 4 3 -13 220 -37 482 -48 523 -42 495 -131 613
-81 110 -146 167 -268 235 -97 55 -154 90 -236 148 -16 11 -22 9 -45 -19z"/>
<path d="M2017 3965 c-4 -55 -12 -118 -18 -140 -12 -40 -7 -247 7 -327 l7 -38
183 0 c172 0 184 -1 197 -20 10 -15 12 -34 6 -73 -23 -159 -23 -147 8 -147 46
-1 106 -34 151 -85 23 -26 42 -52 42 -57 0 -4 25 8 55 28 54 36 79 40 128 19
13 -5 17 -2 17 14 0 28 -67 203 -124 325 -37 80 -46 108 -45 150 1 35 -5 65
-20 94 -13 25 -21 60 -21 91 0 37 -6 56 -24 78 -12 15 -21 33 -19 39 2 6 -106
39 -260 80 l-264 70 -6 -101z"/>
<path d="M1415 4035 c-33 -8 -130 -23 -215 -36 -184 -26 -202 -36 -220 -128
-6 -31 -16 -71 -21 -89 -17 -53 -113 -205 -216 -340 -138 -183 -152 -220 -169
-469 l-7 -103 275 0 275 0 12 40 c22 75 115 150 184 150 15 0 27 2 27 4 0 2
-11 82 -25 177 -34 232 -43 219 155 219 l150 0 0 108 c0 59 -7 136 -14 172
-22 100 -69 233 -94 265 -12 15 -22 32 -22 36 0 11 2 11 -75 -6z"/>
<path d="M2353 2988 c-6 -7 -13 -37 -17 -65 l-7 -53 81 0 c73 0 81 2 76 18 -2
9 -7 32 -11 50 -6 28 -10 32 -40 32 -18 0 -38 7 -45 15 -15 18 -24 19 -37 3z"/>
<path d="M3145 1736 c-7 -31 -115 -748 -115 -766 0 -8 13 2 30 22 16 20 61 59
100 88 38 29 81 70 94 93 l25 40 -62 75 c-34 41 -68 82 -75 93 -12 16 -6 40
48 189 35 94 61 172 59 174 -2 2 -25 6 -52 8 -42 5 -48 3 -52 -16z"/>
<path d="M3471 809 c-52 -26 -92 -39 -140 -44 -130 -13 -185 -42 -195 -105
-11 -70 -37 -134 -63 -158 l-25 -23 -43 35 -42 35 -7 -46 c-12 -91 -8 -113 28
-149 l34 -34 167 0 167 0 60 55 c64 60 73 63 99 39 16 -14 21 -13 61 7 88 44
169 110 188 152 l18 41 -30 43 c-24 36 -34 43 -51 37 -22 -6 -22 -6 -2 9 20
15 19 16 -15 52 -35 36 -118 96 -129 93 -3 0 -39 -18 -80 -39z"/>
<path d="M1433 794 c-17 -82 -9 -155 22 -213 48 -87 55 -80 55 52 0 95 -3 117
-17 128 -9 8 -24 27 -34 43 l-18 29 -8 -39z"/>
<path d="M1702 777 l-32 -33 0 -112 0 -112 67 0 66 0 -19 -21 c-10 -12 -52
-46 -91 -76 -76 -56 -99 -64 -243 -78 -70 -8 -90 -18 -90 -45 0 -19 67 -47
249 -104 192 -61 326 -58 484 9 14 6 17 2 17 -19 l0 -26 114 0 c151 0 150 -1
141 134 -6 95 -22 213 -31 227 -2 4 -25 -4 -51 -17 -56 -29 -117 -31 -156 -5
-16 10 -50 41 -76 70 -53 58 -73 62 -132 29 l-39 -22 -45 44 c-29 29 -52 64
-65 100 -37 100 -31 95 -68 57z"/>
<path d="M2740 711 c-14 -5 -53 -22 -87 -40 -69 -35 -107 -39 -121 -15 -16 29
-33 -45 -37 -154 l-3 -99 55 -12 c39 -9 58 -10 67 -2 35 29 165 -38 182 -92
12 -40 52 -63 134 -76 94 -15 255 5 339 42 22 10 1 13 -124 17 -169 6 -197 16
-230 86 -16 35 -16 44 -2 138 l16 100 -27 48 c-35 62 -88 81 -162 59z"/>
</g>
</svg>
