<?xml version="1.0" standalone="no"?>
<!DOCTYPE svg PUBLIC "-//W3C//DTD SVG 20010904//EN"
 "http://www.w3.org/TR/2001/REC-SVG-20010904/DTD/svg10.dtd">
<svg version="1.0" xmlns="http://www.w3.org/2000/svg"
 width="512.000000pt" height="512.000000pt" viewBox="0 0 512.000000 512.000000"
 preserveAspectRatio="xMidYMid meet">

<g transform="translate(0.000000,512.000000) scale(0.100000,-0.100000)"
fill="#000000" stroke="none">
<path d="M80 3200 l0 -1840 422 0 422 0 -305 -308 c-334 -335 -349 -355 -372
-486 -47 -277 202 -526 479 -479 137 24 136 23 664 549 l485 483 -60 61 -60
60 77 76 76 77 -66 49 -65 49 -69 -68 -68 -68 -62 63 -63 62 68 68 68 69 -49
65 -49 66 -77 -76 -76 -77 -60 60 -60 59 -98 -97 -97 -97 -423 0 -422 0 0
1680 0 1680 2320 0 2320 0 0 -1680 0 -1680 -753 0 -752 0 -50 -42 c-28 -22
-77 -58 -109 -80 l-59 -38 941 0 942 0 0 1840 0 1840 -2480 0 -2480 0 0 -1840z
m1385 -1900 l180 -180 -415 -416 c-231 -231 -433 -425 -455 -437 -53 -29 -173
-30 -225 -3 -49 26 -98 74 -123 121 -29 53 -30 173 -3 225 15 30 842 870 856
870 3 0 86 -81 185 -180z"/>
<path d="M400 4640 l0 -80 80 0 80 0 0 80 0 80 -80 0 -80 0 0 -80z"/>
<path d="M720 4640 l0 -80 80 0 80 0 0 80 0 80 -80 0 -80 0 0 -80z"/>
<path d="M1040 4640 l0 -80 80 0 80 0 0 80 0 80 -80 0 -80 0 0 -80z"/>
<path d="M1081 4064 c-253 -68 -410 -331 -346 -577 20 -78 58 -150 107 -203
l40 -44 -48 -20 c-164 -71 -323 -236 -385 -399 -29 -77 -49 -189 -49 -272 l0
-69 479 0 c264 0 482 3 484 8 2 4 8 40 11 80 l7 72 -405 0 c-466 0 -424 -11
-383 103 33 92 70 150 134 213 65 64 119 98 212 132 56 21 88 26 218 30 170 5
255 -6 341 -44 47 -21 57 -22 64 -10 4 8 26 37 48 65 l41 52 -66 30 -66 31 40
43 c102 111 144 282 106 428 -67 259 -333 419 -584 351z m270 -185 c67 -36 98
-68 137 -143 22 -43 26 -64 26 -136 1 -78 -2 -90 -33 -148 -38 -70 -70 -100
-145 -140 -43 -22 -64 -26 -136 -26 -72 0 -93 4 -136 26 -75 40 -107 70 -145
140 -31 58 -34 70 -33 148 0 100 24 160 89 225 100 100 249 121 376 54z"/>
<path d="M2160 4000 l0 -80 80 0 80 0 0 80 0 80 -80 0 -80 0 0 -80z"/>
<path d="M2480 4000 l0 -80 80 0 80 0 0 80 0 80 -80 0 -80 0 0 -80z"/>
<path d="M2800 4000 l0 -80 80 0 80 0 0 80 0 80 -80 0 -80 0 0 -80z"/>
<path d="M3801 4064 c-209 -56 -361 -252 -361 -464 0 -111 48 -236 121 -315
l41 -44 -67 -30 -66 -30 40 -52 c23 -28 45 -57 49 -65 7 -12 17 -11 64 10 86
38 171 49 341 44 130 -4 162 -9 218 -30 95 -35 152 -71 215 -135 64 -65 98
-120 131 -210 41 -114 83 -103 -383 -103 l-405 0 7 -72 c3 -40 9 -76 11 -80 2
-5 220 -8 484 -8 l479 0 0 69 c0 83 -20 195 -49 272 -61 161 -215 323 -376
394 l-57 26 40 43 c103 112 145 282 107 429 -67 259 -333 419 -584 351z m270
-185 c67 -36 98 -68 137 -143 22 -43 26 -64 26 -136 1 -78 -2 -90 -33 -148
-38 -70 -70 -100 -145 -140 -43 -22 -64 -26 -136 -26 -72 0 -93 4 -136 26 -75
40 -107 70 -145 140 -31 58 -34 70 -33 148 0 100 24 160 89 225 100 100 249
121 376 54z"/>
<path d="M2390 3265 c-415 -85 -710 -445 -710 -865 0 -393 253 -729 637 -847
79 -24 103 -27 243 -27 141 0 163 3 245 28 293 89 512 308 601 601 25 82 28
104 28 245 0 141 -3 163 -28 245 -99 324 -355 556 -684 621 -90 17 -244 17
-332 -1z m385 -179 c113 -36 198 -89 290 -181 91 -91 144 -175 182 -290 23
-71 26 -96 26 -215 0 -119 -3 -144 -26 -215 -38 -115 -91 -199 -182 -290 -91
-91 -175 -144 -290 -182 -71 -23 -96 -26 -215 -26 -119 0 -144 3 -215 26 -114
38 -198 90 -290 182 -91 91 -144 175 -182 290 -23 71 -26 96 -26 215 -1 118 3
145 25 212 39 119 92 204 182 294 110 110 236 177 381 204 88 16 250 4 340
-24z"/>
<path d="M2160 2720 l0 -80 400 0 400 0 0 80 0 80 -400 0 -400 0 0 -80z"/>
<path d="M2160 2400 l0 -80 400 0 400 0 0 80 0 80 -400 0 -400 0 0 -80z"/>
<path d="M2160 2080 l0 -80 400 0 400 0 0 80 0 80 -400 0 -400 0 0 -80z"/>
<path d="M400 2240 l0 -80 400 0 400 0 0 80 0 80 -400 0 -400 0 0 -80z"/>
<path d="M3920 2240 l0 -80 400 0 400 0 0 80 0 80 -400 0 -400 0 0 -80z"/>
<path d="M400 1920 l0 -80 400 0 400 0 0 80 0 80 -400 0 -400 0 0 -80z"/>
<path d="M3920 1920 l0 -80 400 0 400 0 0 80 0 80 -400 0 -400 0 0 -80z"/>
</g>
</svg>
