<?xml version="1.0" standalone="no"?>
<!DOCTYPE svg PUBLIC "-//W3C//DTD SVG 20010904//EN"
 "http://www.w3.org/TR/2001/REC-SVG-20010904/DTD/svg10.dtd">
<svg version="1.0" xmlns="http://www.w3.org/2000/svg"
 width="512.000000pt" height="512.000000pt" viewBox="0 0 512.000000 512.000000"
 preserveAspectRatio="xMidYMid meet">

<g transform="translate(0.000000,512.000000) scale(0.100000,-0.100000)"
fill="#000000" stroke="none">
<path d="M1753 3005 c-126 -35 -283 -140 -373 -248 -64 -77 -143 -239 -164
-334 -13 -59 -16 -145 -16 -472 0 -379 1 -403 20 -455 28 -73 99 -147 175
-183 l60 -28 1105 0 1105 0 60 28 c76 36 147 110 175 183 19 52 20 76 20 455
0 461 -3 485 -80 644 -78 161 -188 275 -341 355 -179 93 -308 88 -479 -17
-133 -81 -262 -113 -460 -113 -198 0 -327 32 -460 113 -122 75 -246 101 -347
72z m152 -634 c50 -22 108 -86 126 -137 7 -22 13 -69 13 -106 0 -87 -39 -168
-102 -213 -37 -26 -53 -30 -106 -30 -51 0 -70 5 -104 27 -153 102 -141 372 20
452 61 31 98 32 153 7z m1463 -7 c219 -109 137 -504 -100 -482 -109 11 -192
117 -192 246 0 37 6 84 13 106 27 79 123 155 197 156 16 0 53 -12 82 -26z
m-949 -494 c4 0 24 -15 45 -34 62 -58 129 -59 188 -4 43 40 70 50 108 37 37
-13 50 -36 50 -83 0 -45 -51 -100 -125 -136 -74 -35 -181 -34 -252 3 -76 39
-123 90 -123 132 0 18 3 41 6 50 8 20 63 46 82 40 8 -3 17 -5 21 -5z"/>
<path d="M285 2721 c-71 -18 -138 -72 -172 -140 -17 -33 -18 -79 -21 -556 -2
-379 0 -532 9 -563 15 -55 86 -134 141 -158 35 -15 78 -19 239 -22 214 -4 259
2 310 45 60 51 59 37 59 677 0 388 -4 594 -11 613 -15 42 -68 92 -109 103 -40
11 -399 12 -445 1z"/>
<path d="M4386 2720 c-38 -12 -85 -57 -102 -97 -11 -26 -14 -143 -14 -618 0
-641 -1 -627 59 -678 51 -43 96 -49 310 -45 161 3 204 7 239 22 55 24 126 103
141 158 9 31 11 184 9 563 -3 576 -1 553 -70 624 -69 71 -89 76 -328 78 -118
1 -228 -2 -244 -7z"/>
<path d="M2670 586 c-87 -23 -149 -79 -179 -159 -18 -48 -13 -146 10 -194 26
-54 96 -116 147 -131 42 -13 775 -18 807 -6 37 15 45 56 45 243 0 99 -4 191
-10 205 -20 54 -38 56 -422 55 -246 0 -367 -4 -398 -13z"/>
</g>
</svg>
