<?xml version="1.0" standalone="no"?>
<!DOCTYPE svg PUBLIC "-//W3C//DTD SVG 20010904//EN"
 "http://www.w3.org/TR/2001/REC-SVG-20010904/DTD/svg10.dtd">
<svg version="1.0" xmlns="http://www.w3.org/2000/svg"
 width="512.000000pt" height="512.000000pt" viewBox="0 0 512.000000 512.000000"
 preserveAspectRatio="xMidYMid meet">

<g transform="translate(0.000000,512.000000) scale(0.100000,-0.100000)"
fill="#000000" stroke="none">
<path d="M345 5096 c-175 -44 -309 -193 -335 -371 -13 -96 -13 -3195 0 -3290
26 -175 144 -314 311 -366 57 -18 103 -19 805 -19 589 0 744 -3 744 -12 -1 -7
-26 -175 -58 -373 l-57 -360 -216 -5 c-185 -4 -219 -8 -242 -23 -94 -61 -86
-200 13 -249 33 -17 113 -18 1253 -18 1099 0 1222 2 1253 16 99 47 101 201 4
259 -32 18 -57 21 -255 25 l-219 5 -51 362 -51 363 721 0 c421 0 749 5 790 10
178 25 317 154 354 328 8 38 11 519 11 1705 0 1807 3 1708 -57 1820 -37 67
-130 150 -200 179 l-58 23 -2205 2 c-1731 1 -2216 -1 -2255 -11z m2215 -2014
l0 -1738 -1074 -2 c-1195 -1 -1115 -5 -1163 67 l-23 34 0 1635 c0 1624 0 1635
20 1667 11 18 40 43 63 54 42 21 47 21 1110 21 l1067 0 0 -1738z m1255 1253
c108 -28 198 -108 242 -216 12 -30 18 -70 18 -124 0 -71 -4 -89 -33 -147 -38
-77 -92 -130 -171 -167 -47 -22 -70 -26 -141 -26 -76 0 -93 4 -152 33 -257
126 -260 488 -4 619 84 43 153 51 241 28z m242 -750 c160 -48 261 -205 251
-388 -3 -61 -7 -72 -31 -93 l-28 -24 -520 0 -521 0 -30 31 -31 30 5 97 c3 70
11 111 27 146 43 99 122 170 224 201 65 21 586 20 654 0z m-182 -1018 c214
-99 267 -387 101 -552 -78 -77 -132 -100 -241 -100 -77 0 -98 4 -147 27 -69
32 -136 97 -169 163 -21 43 -24 64 -24 150 0 86 3 107 25 150 83 168 285 240
455 162z m210 -737 c80 -31 164 -114 192 -190 27 -73 39 -188 23 -234 -22 -69
1 -66 -572 -66 l-517 0 -27 23 c-33 29 -42 95 -25 193 21 119 88 211 190 261
52 26 67 28 221 34 91 4 230 5 310 4 124 -2 154 -5 205 -25z"/>
<path d="M1118 3590 c-114 -18 -214 -94 -262 -201 -32 -68 -45 -188 -26 -243
22 -67 10 -66 575 -66 l507 0 30 30 c30 31 30 31 26 128 -3 78 -9 108 -30 153
-36 79 -89 133 -166 171 l-66 33 -266 2 c-146 1 -291 -3 -322 -7z"/>
</g>
</svg>
